<?xml version="1.0" standalone="no"?>
<!DOCTYPE svg PUBLIC "-//W3C//DTD SVG 20010904//EN"
 "http://www.w3.org/TR/2001/REC-SVG-20010904/DTD/svg10.dtd">
<svg version="1.0" xmlns="http://www.w3.org/2000/svg"
 width="1067.000000pt" height="1067.000000pt" viewBox="0 0 1067.000000 1067.000000"
 preserveAspectRatio="xMidYMid meet">
<metadata>
Created by potrace 1.11, written by Peter Selinger 2001-2013
</metadata>
<g transform="translate(0.000000,1067.000000) scale(0.100000,-0.100000)"
fill="#000000" stroke="none">
<path d="M4141 7580 c-655 -1167 -1193 -2127 -1194 -2133 -2 -8 1110 -676
1244 -747 l36 -19 534 950 c445 792 536 947 545 934 7 -9 241 -423 520 -921
394 -700 512 -904 525 -901 12 3 1292 783 1317 802 3 2 -2316 4135 -2328 4148
-4 4 -543 -947 -1199 -2113z"/>
<path d="M7147 4878 c-361 -222 -656 -408 -654 -414 1 -6 213 -387 471 -846
l470 -836 1330 -786 c731 -432 1331 -784 1334 -781 6 6 -2272 4058 -2284 4062
-5 2 -305 -178 -667 -399z"/>
<path d="M1682 3202 c-611 -1087 -1114 -1985 -1117 -1994 -4 -10 -5 -18 -2
-18 10 0 2571 1572 2589 1589 15 15 916 1612 921 1633 2 7 -698 427 -1234 740
l-46 27 -1111 -1977z"/>
<path d="M2068 1762 c-697 -427 -1267 -780 -1268 -784 0 -5 2036 -8 4525 -8
2489 0 4525 3 4525 8 -1 4 -593 357 -1317 785 l-1317 777 -1940 0 -1941 -1
-1267 -777z"/>
<path d="M8735 1853 c13 -14 1457 -861 1482 -869 12 -5 15 -4 8 4 -12 12
-1459 860 -1483 869 -11 4 -14 3 -7 -4z"/>
</g>
</svg>
