<?xml version="1.0" encoding="UTF-8" standalone="no"?>
<svg width="526px" height="92px" viewBox="0 0 526 92" version="1.1" xmlns="http://www.w3.org/2000/svg" xmlns:xlink="http://www.w3.org/1999/xlink">
    <!-- Generator: Sketch 3.8.3 (29802) - http://www.bohemiancoding.com/sketch -->
    <title>Artboard 12@1x</title>
    <desc>Created with Sketch.</desc>
    <defs></defs>
    <g id="Page-1" stroke="none" stroke-width="1" fill="none" fill-rule="evenodd">
        <g id="Artboard-12">
            <g id="XMLID_219_-+-Studio">
                <g id="XMLID_219_">
                    <polygon id="XMLID_227_" fill="#F39C12" points="24.1172975 26.4566142 24.1172975 15.128643 0.46117701 30.2278328 5.70215923 38.3599142 14.4378556 32.7133152 14.4378556 89.1720026 24.1172975 89.1720026"></polygon>
                    <path d="M71.3690419,11.7509075 L65.9984035,0.241574269 L45.3121294,44.7068126 L24.5630842,89.172051 L107.496494,89.172051 L71.3690419,11.7509075 L71.3690419,11.7509075 Z M54.084656,48.7946168 L66.0303457,23.1975137 L92.3608475,79.6238462 L39.6986339,79.6238462 L54.084656,48.7946168 L54.084656,48.7946168 Z" id="XMLID_224_" fill="#34A853"></path>
                    <g id="XMLID_222_" transform="translate(107.925777, 14.025333)" fill="#E74C3C">
                        <path d="M46.5556473,66.5657776 L46.5556473,75.1466697 L0.263038834,75.1466697 L33.6457885,32.1630385 C33.6457885,32.1630385 33.6563875,32.1493517 33.6786502,32.1238643 C35.6080049,29.8093942 36.7686184,26.8324447 36.7686184,23.5846129 C36.7686184,16.2116889 30.7874493,10.2347207 23.4093431,10.2347207 C16.0311885,10.2347207 10.0500193,16.2116889 10.0500193,23.5846129 L0.262990437,23.5846129 C0.262990437,10.810243 10.6259461,0.454565876 23.4092947,0.454565876 C36.1926432,0.454565876 46.5555989,10.810243 46.5555989,23.5846129 C46.5555989,29.2600848 44.5100425,34.4581633 41.1155106,38.4827084 C36.5758039,44.3381882 20.7060201,64.817012 20.7060201,64.817012 L46.5555989,64.817012 C46.5556473,64.8170604 46.5556473,65.5229699 46.5556473,66.5657776 L46.5556473,66.5657776 Z" id="XMLID_223_"></path>
                    </g>
                    <g id="XMLID_220_" transform="translate(155.839015, 14.508965)" fill="#3498DB">
                        <path d="M55.0750081,43.7778036 C52.8947138,34.5634984 46.1931522,27.7843296 33.5024359,26.4160858 C41.1436778,17.238585 55.4066742,0.10509327 55.4066742,0.10509327 L7.80734105,0.10509327 L7.80734105,9.77773666 L35.540394,9.77773666 L13.2051786,36.6365394 C17.4496139,34.7060248 25.7884531,34.5320623 28.3581997,34.5925647 C39.1926411,34.8476807 45.9043177,41.8879142 45.6086107,50.6616304 C45.3112583,59.4839034 37.1481977,66.6448031 26.7117267,66.6448031 C18.7141846,66.6448031 11.877014,62.4426683 9.11827626,56.5064219 C9.11827626,56.5064219 0.266813816,60.9199524 0.266475036,60.9201458 C4.56932575,70.3715275 14.9225536,77.0319647 27.0106762,77.0319647 C42.9578472,77.0319647 55.8855162,65.4402205 55.8855162,51.1410067 C55.8854678,48.5642145 55.6231065,46.0940631 55.0750081,43.7778036 L55.0750081,43.7778036 Z" id="XMLID_221_"></path>
                    </g>
                </g>
                <path d="M245.264,72.088 C249.424,83.632 258.784,89.456 270.328,89.456 C277.504,89.456 283.12,87.584 287.072,83.736 C291.128,79.888 293.104,75 293.104,69.072 C293.104,63.352 291.544,58.984 288.32,55.864 C285.2,52.64 280,49.416 272.616,46.192 L266.376,43.384 C265.232,42.76 263.88,41.824 262.112,40.68 C258.784,38.184 257.848,35.688 257.848,31.944 C257.848,26.016 262.944,21.648 269.496,21.648 C275.216,21.648 279.48,24.144 282.184,29.24 L289.152,25.704 C284.992,18.008 278.44,14.16 269.6,14.16 C263.88,14.16 259.096,15.824 255.352,19.256 C251.608,22.688 249.736,26.952 249.736,32.152 C249.736,37.456 251.296,41.616 254.312,44.424 C257.328,47.232 262.216,50.144 268.768,53.056 C274.696,55.656 278.96,58.048 281.352,60.128 C283.744,62.208 284.992,65.224 284.992,69.176 C284.992,71.672 284.472,73.856 282.704,76.872 C280.936,79.888 276.568,81.968 270.432,81.968 C261.904,81.968 255.872,77.6 252.232,68.864 L245.264,72.088 Z M315.672,88 L315.672,42.76 L327.32,42.76 L327.32,35.584 L315.672,35.584 L315.672,15.512 L307.976,15.512 L307.976,35.584 L301.32,35.584 L301.32,42.76 L307.976,42.76 L307.976,88 L315.672,88 Z M335.536,67.72 C335.536,81.448 344.272,89.248 357.168,89.248 C370.48,89.248 379.528,81.136 379.528,66.992 L379.528,35.584 L371.832,35.584 L371.832,66.888 C371.832,76.768 366.32,82.072 357.48,82.072 C348.64,82.072 343.232,76.872 343.232,66.992 L343.232,35.584 L335.536,35.584 L335.536,67.72 Z M414.992,34.024 C407.608,34.024 401.264,36.728 396.168,42.032 C391.072,47.336 388.472,53.888 388.472,61.792 C388.472,69.696 391.072,76.352 396.168,81.656 C401.264,86.96 407.608,89.56 414.992,89.56 C424.456,89.56 430.592,85.504 433.608,80.2 L433.608,88 L441.304,88 L441.304,15.512 L433.608,15.512 L433.608,43.384 C430.592,38.08 424.456,34.024 414.992,34.024 L414.992,34.024 Z M414.992,82.384 C409.584,82.384 405.112,80.408 401.472,76.56 C397.936,72.608 396.168,67.72 396.168,61.792 C396.168,55.864 397.936,50.976 401.472,47.128 C405.112,43.176 409.584,41.2 414.992,41.2 C420.608,41.2 425.288,43.176 428.928,47.128 C432.672,50.976 434.544,55.864 434.544,61.792 C434.544,67.72 432.672,72.608 428.928,76.56 C425.288,80.408 420.608,82.384 414.992,82.384 L414.992,82.384 Z M460.752,25.392 C462.832,23.312 462.832,19.984 460.752,18.008 C458.672,15.928 455.552,15.928 453.472,18.008 C451.392,19.984 451.392,23.312 453.472,25.392 C455.552,27.368 458.672,27.368 460.752,25.392 L460.752,25.392 Z M460.96,88 L460.96,35.584 L453.264,35.584 L453.264,88 L460.96,88 Z M478.744,81.656 C484.152,86.96 490.704,89.56 498.504,89.56 C506.304,89.56 512.856,86.96 518.264,81.656 C523.672,76.352 526.376,69.696 526.376,61.792 C526.376,53.888 523.672,47.336 518.264,42.032 C512.856,36.728 506.304,34.024 498.504,34.024 C490.704,34.024 484.152,36.728 478.744,42.032 C473.336,47.336 470.632,53.888 470.632,61.792 C470.632,69.696 473.336,76.352 478.744,81.656 L478.744,81.656 Z M484.048,47.128 C487.896,43.176 492.68,41.2 498.504,41.2 C504.328,41.2 509.112,43.176 512.96,47.128 C516.808,50.976 518.68,55.864 518.68,61.792 C518.68,67.72 516.808,72.608 512.96,76.56 C509.112,80.408 504.328,82.384 498.504,82.384 C492.68,82.384 487.896,80.408 484.048,76.56 C480.2,72.608 478.328,67.72 478.328,61.792 C478.328,55.864 480.2,50.976 484.048,47.128 L484.048,47.128 Z" id="Studio" fill="#333333"></path>
            </g>
        </g>
    </g>
</svg>