<?xml version="1.0" encoding="utf-8"?>
<!-- Generator: Adobe Illustrator 19.0.0, SVG Export Plug-In . SVG Version: 6.00 Build 0)  -->
<svg version="1.1" id="Layer_1" xmlns="http://www.w3.org/2000/svg" xmlns:xlink="http://www.w3.org/1999/xlink" x="0px" y="0px"
	 viewBox="0 0 256 256" enable-background="new 0 0 256 256" xml:space="preserve">
<g id="XMLID_3_">
	<polygon id="XMLID_4_" fill="#FFBB00" points="-1624.0319,-31.3879 -1624.0319,-54.8107 -1672.9111,-23.5902 -1662.082,-6.7756 
		-1644.032,-18.4511 -1644.032,98.2879 -1624.0319,98.2879 	"/>
	<path id="XMLID_42_" fill="#7CBB00" d="M-1526.3987-61.7948l-11.097-23.7977l-42.7427,91.9402l-42.8724,91.9402h171.3599
		L-1526.3987-61.7948z M-1562.1123,14.8l24.6826-52.9268l54.405,116.672h-108.8125L-1562.1123,14.8z"/>
	<g id="XMLID_12_">
		<path id="XMLID_16_" fill="#F65314" d="M-1354.6689,80.5452c0,6.0916,0,17.7426,0,17.7426h-95.6515l68.9766-88.8767
			c0,0,0.0219-0.0283,0.0679-0.081c3.9866-4.7856,6.3848-10.941,6.3848-17.6565c0-15.245-12.3585-27.6034-27.6035-27.6034
			c-15.2449,0-27.6034,12.3585-27.6034,27.6034c-4.5616,0-15.5944,0-20.2223,0c0-26.4134,21.4124-47.8257,47.8257-47.8257
			c26.4135,0,47.8258,21.4123,47.8258,47.8257c0,11.7351-4.2267,22.4831-11.2406,30.8046
			c-9.38,12.1073-42.1708,54.4511-42.1708,54.4511h53.4114C-1354.6689,76.9294-1354.6689,78.3891-1354.6689,80.5452z"/>
	</g>
	<g id="XMLID_25_">
		<path id="XMLID_23_" fill="#00A1F1" d="M-1238.066,34.4268c-4.5051-19.0523-18.3521-33.0695-44.5741-35.8985
			c15.7887-18.9762,45.2594-54.4029,45.2594-54.4029h-98.3514v20h57.303c0,0-46.1499,55.5356-46.1499,55.5356
			c8.77-3.9917,26-4.3514,31.3098-4.2263c22.3865,0.5275,36.2544,15.0845,35.6433,33.2258
			c-0.6144,18.2417-17.4812,33.0482-39.0454,33.0482c-16.5248,0-30.652-8.6887-36.3523-20.963c0,0-18.2891,9.1258-18.2898,9.1262
			c8.8906,19.5425,30.2828,33.3142,55.2598,33.3142c32.9506,0,59.6622-23.9682,59.6622-53.5344
			C-1236.3915,44.3236-1236.9336,39.2161-1238.066,34.4268z"/>
	</g>
</g>
<g id="XMLID_1_">
	<path id="XMLID_2_" fill="#FFFFFF" stroke="#231F20" stroke-miterlimit="10" d="M-1446.522,144.4376"/>
	<path id="XMLID_5_" fill="none" stroke="#231F20" stroke-miterlimit="10" d="M-1388.0962,144.4376"/>
	<path id="XMLID_9_" fill="none" stroke="#231F20" stroke-miterlimit="10" d="M-1648.4503,161.4151"/>
	<path id="XMLID_14_" fill="none" stroke="#231F20" stroke-miterlimit="10" d="M-1622.4554,161.4151"/>
	<polygon id="XMLID_54_" fill="#FBBC05" points="-1624.0319,163.0079 -1624.0319,139.5851 -1672.9111,170.8056 -1662.082,187.6202 
		-1644.032,175.9447 -1644.032,292.6837 -1624.0319,292.6837 	"/>
	<path id="XMLID_48_" fill="#34A853" d="M-1526.3987,132.6011l-11.097-23.7977l-42.7427,91.9402l-42.8724,91.9402h171.3599
		L-1526.3987,132.6011z M-1562.1123,209.1958l24.6826-52.9268l54.405,116.672h-108.8125L-1562.1123,209.1958z"/>
	<g id="XMLID_44_">
		<path id="XMLID_45_" fill="#EA4335" d="M-1354.6689,274.9411c0,6.0916,0,17.7426,0,17.7426h-95.6515l68.9766-88.8767
			c0,0,0.0219-0.0283,0.0679-0.0809c3.9866-4.7856,6.3848-10.941,6.3848-17.6565c0-15.2449-12.3585-27.6034-27.6035-27.6034
			c-15.2449,0-27.6034,12.3585-27.6034,27.6034c-4.5616,0-15.5944,0-20.2223,0c0-26.4134,21.4124-47.8257,47.8257-47.8257
			c26.4135,0,47.8258,21.4123,47.8258,47.8257c0,11.7351-4.2267,22.4831-11.2406,30.8046
			c-9.38,12.1073-42.1708,54.4511-42.1708,54.4511h53.4114C-1354.6689,271.3253-1354.6689,272.7849-1354.6689,274.9411z"/>
	</g>
	<g id="XMLID_6_">
		<path id="XMLID_8_" fill="#4285F4" d="M-1238.066,228.8226c-4.5051-19.0523-18.3521-33.0695-44.5741-35.8985
			c15.7887-18.9762,45.2594-54.4029,45.2594-54.4029h-98.3514v20h57.303c0,0-46.1499,55.5356-46.1499,55.5356
			c8.77-3.9917,26-4.3514,31.3098-4.2263c22.3865,0.5275,36.2544,15.0845,35.6433,33.2258
			c-0.6144,18.2417-17.4812,33.0482-39.0454,33.0482c-16.5248,0-30.652-8.6887-36.3523-20.963c0,0-18.2891,9.1258-18.2898,9.1261
			c8.8906,19.5425,30.2828,33.3142,55.2598,33.3142c32.9506,0,59.6622-23.9681,59.6622-53.5344
			C-1236.3915,238.7195-1236.9336,233.612-1238.066,228.8226z"/>
	</g>
</g>
<g id="XMLID_24_">
	<path id="XMLID_80_" fill="#FFFFFF" stroke="#231F20" stroke-miterlimit="10" d="M-1360.7772,340.8365"/>
	<path id="XMLID_79_" fill="#FFFFFF" stroke="#231F20" stroke-miterlimit="10" d="M-1446.522,340.8365"/>
	<path id="XMLID_78_" fill="none" stroke="#231F20" stroke-miterlimit="10" d="M-1388.0962,340.8365"/>
	<path id="XMLID_77_" fill="none" stroke="#231F20" stroke-miterlimit="10" d="M-1353.7004,340.8365"/>
	<path id="XMLID_76_" fill="none" stroke="#231F20" stroke-miterlimit="10" d="M-1648.4503,357.814"/>
	<path id="XMLID_75_" fill="none" stroke="#231F20" stroke-miterlimit="10" d="M-1622.4554,357.814"/>
	<polygon id="XMLID_74_" fill="#FBA026" points="-1624.0319,359.4067 -1624.0319,335.9839 -1672.9111,367.2044 -1662.082,384.019 
		-1644.032,372.3436 -1644.032,489.0825 -1624.0319,489.0825 	"/>
	<path id="XMLID_52_" fill="#41A85F" d="M-1526.3987,328.9999l-11.097-23.7977l-42.7427,91.9402l-42.8724,91.9402h171.3599
		L-1526.3987,328.9999z M-1562.1123,405.5947l24.6826-52.9268l54.405,116.672h-108.8125L-1562.1123,405.5947z"/>
	<g id="XMLID_47_">
		<path id="XMLID_51_" fill="#E25041" d="M-1354.6689,471.3399c0,6.0916,0,17.7426,0,17.7426h-95.6515l68.9766-88.8767
			c0,0,0.0219-0.0282,0.0679-0.0809c3.9866-4.7856,6.3848-10.941,6.3848-17.6565c0-15.245-12.3585-27.6034-27.6035-27.6034
			c-15.2449,0-27.6034,12.3585-27.6034,27.6034c-4.5616,0-15.5944,0-20.2223,0c0-26.4134,21.4124-47.8257,47.8257-47.8257
			c26.4135,0,47.8258,21.4123,47.8258,47.8257c0,11.7351-4.2267,22.4831-11.2406,30.8046
			c-9.38,12.1072-42.1708,54.4511-42.1708,54.4511h53.4114C-1354.6689,467.7241-1354.6689,469.1837-1354.6689,471.3399z"/>
	</g>
	<path id="XMLID_46_" fill="none" stroke="#FFF100" stroke-miterlimit="10" d="M-1498.9344,497.9866"/>
	<g id="XMLID_37_">
		<path id="XMLID_43_" fill="#2C82C9" d="M-1238.066,425.2215c-4.5051-19.0523-18.3521-33.0695-44.5741-35.8986
			c15.7887-18.9762,45.2594-54.4029,45.2594-54.4029h-98.3514v20h57.303c0,0-46.1499,55.5356-46.1499,55.5356
			c8.77-3.9917,26-4.3514,31.3098-4.2263c22.3865,0.5275,36.2544,15.0845,35.6433,33.2257
			c-0.6144,18.2417-17.4812,33.0482-39.0454,33.0482c-16.5248,0-30.652-8.6887-36.3523-20.963c0,0-18.2891,9.1258-18.2898,9.1262
			c8.8906,19.5425,30.2828,33.3142,55.2598,33.3142c32.9506,0,59.6622-23.9682,59.6622-53.5344
			C-1236.3915,435.1183-1236.9336,430.0108-1238.066,425.2215z"/>
	</g>
</g>
<g id="XMLID_113_">
	<polygon id="XMLID_121_" fill="#F37934" points="-1136.9733,-30.2384 -1136.9733,-53.6612 -1185.8525,-22.4407 -1175.0234,-5.6261 
		-1156.9734,-17.3015 -1156.9734,99.4374 -1136.9733,99.4374 	"/>
	<path id="XMLID_118_" fill="#338247" d="M-1039.3401-60.6452l-11.097-23.7977l-42.7427,91.9402l-42.8724,91.9402h171.3599
		L-1039.3401-60.6452z M-1075.0537,15.9495l24.6826-52.9268l54.405,116.672h-108.8125L-1075.0537,15.9495z"/>
	<g id="XMLID_116_">
		<path id="XMLID_117_" fill="#B8312F" d="M-867.6104,81.6948c0,6.0916,0,17.7426,0,17.7426h-95.6514l68.9766-88.8767
			c0,0,0.0219-0.0283,0.0679-0.081c3.9866-4.7856,6.3846-10.941,6.3846-17.6565c0-15.245-12.3585-27.6034-27.6034-27.6034
			c-15.245,0-27.6035,12.3585-27.6035,27.6034c-4.5616,0-15.5944,0-20.2223,0c0-26.4134,21.4123-47.8257,47.8257-47.8257
			c26.4134,0,47.8257,21.4123,47.8257,47.8257c0,11.7351-4.2266,22.4831-11.2405,30.8046
			c-9.3801,12.1073-42.1708,54.4511-42.1708,54.4511h53.4113C-867.6104,78.0789-867.6104,79.5386-867.6104,81.6948z"/>
	</g>
	<g id="XMLID_114_">
		<path id="XMLID_115_" fill="#2969B0" d="M-751.0074,35.5763c-4.5051-19.0523-18.3521-33.0695-44.574-35.8985
			c15.7886-18.9762,45.2593-54.4029,45.2593-54.4029h-98.3514v20h57.303c0,0-46.1498,55.5356-46.1498,55.5356
			c8.77-3.9917,26-4.3514,31.3097-4.2263c22.3865,0.5275,36.2544,15.0845,35.6434,33.2258
			c-0.6144,18.2417-17.4812,33.0482-39.0454,33.0482c-16.5248,0-30.652-8.6887-36.3522-20.963c0,0-18.2892,9.1258-18.2899,9.1262
			c8.8907,19.5425,30.2829,33.3142,55.2598,33.3142c32.9506,0,59.6622-23.9682,59.6622-53.5344
			C-749.3329,45.4732-749.875,40.3657-751.0074,35.5763z"/>
	</g>
</g>
<g id="XMLID_97_">
	<path id="XMLID_112_" fill="#FFFFFF" stroke="#231F20" stroke-miterlimit="10" d="M-873.7186,145.5872"/>
	<path id="XMLID_111_" fill="#FFFFFF" stroke="#231F20" stroke-miterlimit="10" d="M-959.4634,145.5872"/>
	<path id="XMLID_110_" fill="none" stroke="#231F20" stroke-miterlimit="10" d="M-901.0375,145.5872"/>
	<path id="XMLID_109_" fill="none" stroke="#231F20" stroke-miterlimit="10" d="M-866.6418,145.5872"/>
	<path id="XMLID_108_" fill="none" stroke="#231F20" stroke-miterlimit="10" d="M-1161.3917,162.5647"/>
	<path id="XMLID_107_" fill="none" stroke="#231F20" stroke-miterlimit="10" d="M-1135.3969,162.5647"/>
	<polygon id="XMLID_106_" fill="#F7DA64" points="-1136.9733,164.1574 -1136.9733,140.7347 -1185.8525,171.9551 
		-1175.0234,188.7697 -1156.9734,177.0943 -1156.9734,293.8332 -1136.9733,293.8332 	"/>
	<path id="XMLID_103_" fill="#61BD6D" d="M-1039.3401,133.7506l-11.097-23.7977l-42.7427,91.9402l-42.8724,91.9402h171.3599
		L-1039.3401,133.7506z M-1075.0537,210.3454l24.6826-52.9268l54.405,116.672h-108.8125L-1075.0537,210.3454z"/>
	<g id="XMLID_101_">
		<path id="XMLID_102_" fill="#EB6B56" d="M-867.6104,276.0906c0,6.0916,0,17.7426,0,17.7426h-95.6514l68.9766-88.8767
			c0,0,0.0219-0.0283,0.0679-0.081c3.9866-4.7856,6.3846-10.941,6.3846-17.6565c0-15.245-12.3585-27.6034-27.6034-27.6034
			c-15.245,0-27.6035,12.3585-27.6035,27.6034c-4.5616,0-15.5944,0-20.2223,0c0-26.4134,21.4123-47.8257,47.8257-47.8257
			c26.4134,0,47.8257,21.4123,47.8257,47.8257c0,11.7351-4.2266,22.4831-11.2405,30.8046
			c-9.3801,12.1073-42.1708,54.4511-42.1708,54.4511h53.4113C-867.6104,272.4748-867.6104,273.9344-867.6104,276.0906z"/>
	</g>
	<path id="XMLID_100_" fill="none" stroke="#FFF100" stroke-miterlimit="10" d="M-1011.8758,302.7373"/>
	<g id="XMLID_98_">
		<path id="XMLID_99_" fill="#54ACD2" d="M-751.0074,229.9722c-4.5051-19.0523-18.3521-33.0695-44.574-35.8985
			c15.7886-18.9762,45.2593-54.4029,45.2593-54.4029h-98.3514v20h57.303c0,0-46.1498,55.5356-46.1498,55.5356
			c8.77-3.9917,26-4.3514,31.3097-4.2263c22.3865,0.5275,36.2544,15.0845,35.6434,33.2258
			c-0.6144,18.2417-17.4812,33.0482-39.0454,33.0482c-16.5248,0-30.652-8.6887-36.3522-20.963c0,0-18.2892,9.1258-18.2899,9.1262
			c8.8907,19.5425,30.2829,33.3142,55.2598,33.3142c32.9506,0,59.6622-23.9681,59.6622-53.5344
			C-749.3329,239.869-749.875,234.7615-751.0074,229.9722z"/>
	</g>
</g>
<g id="XMLID_81_">
	<path id="XMLID_95_" fill="#FFFFFF" stroke="#231F20" stroke-miterlimit="10" d="M-959.4634,341.986"/>
	<path id="XMLID_94_" fill="none" stroke="#231F20" stroke-miterlimit="10" d="M-901.0375,341.986"/>
	<path id="XMLID_92_" fill="none" stroke="#231F20" stroke-miterlimit="10" d="M-1161.3917,358.9635"/>
	<path id="XMLID_91_" fill="none" stroke="#231F20" stroke-miterlimit="10" d="M-1135.3969,358.9635"/>
	<polygon id="XMLID_90_" fill="#F39C12" points="-1136.9733,360.5562 -1136.9733,337.1335 -1185.8525,368.3539 -1175.0234,385.1686 
		-1156.9734,373.4931 -1156.9733,490.2321 -1136.9733,490.2321 	"/>
	<path id="XMLID_87_" fill="#34A853" d="M-1039.3401,330.1494l-11.097-23.7977l-42.7427,91.9402l-42.8724,91.9402h171.3599
		L-1039.3401,330.1494z M-1075.0537,406.7442l24.6826-52.9268l54.405,116.672h-108.8125L-1075.0537,406.7442z"/>
	<g id="XMLID_85_">
		<path id="XMLID_86_" fill="#E74C3C" d="M-867.6104,472.4894c0,6.0916,0,17.7426,0,17.7426h-95.6514l68.9766-88.8767
			c0,0,0.0219-0.0283,0.0679-0.0809c3.9866-4.7856,6.3846-10.941,6.3846-17.6565c0-15.245-12.3585-27.6034-27.6034-27.6034
			c-15.245,0-27.6035,12.3585-27.6035,27.6034c-4.5616,0-15.5944,0-20.2223,0c0-26.4134,21.4123-47.8257,47.8257-47.8257
			c26.4134,0,47.8257,21.4123,47.8257,47.8257c0,11.7351-4.2266,22.4831-11.2405,30.8046
			c-9.3801,12.1073-42.1708,54.4511-42.1708,54.4511h53.4113C-867.6104,468.8736-867.6104,470.3333-867.6104,472.4894z"/>
	</g>
	<g id="XMLID_82_">
		<path id="XMLID_83_" fill="#3498DB" d="M-751.0074,426.371c-4.5051-19.0523-18.3521-33.0695-44.574-35.8985
			c15.7886-18.9762,45.2593-54.4029,45.2593-54.4029h-98.3514v20h57.303c0,0-46.1498,55.5356-46.1498,55.5356
			c8.77-3.9917,26-4.3514,31.3097-4.2263c22.3865,0.5275,36.2544,15.0845,35.6434,33.2257
			c-0.6144,18.2417-17.4811,33.0482-39.0453,33.0482c-16.5248,0-30.652-8.6887-36.3523-20.963c0,0-18.2891,9.1258-18.2899,9.1262
			c8.8907,19.5425,30.2829,33.3142,55.2598,33.3142c32.9506,0,59.6622-23.9682,59.6622-53.5344
			C-749.3328,436.2678-749.875,431.1603-751.0074,426.371z"/>
	</g>
</g>
<g id="XMLID_135_">
	<path id="XMLID_805_" d="M-1670.8231-79.6562l3.2881,7.5962l3.2998-7.5962l1.8364,9.564h-1.0322l-1.1641-6.1201h-0.0239
		l-2.916,6.4922l-2.9038-6.4922h-0.0239l-1.1641,6.1201h-1.0322L-1670.8231-79.6562z"/>
	<path id="XMLID_807_" d="M-1660.5873-78.5405c0.1841,0,0.3442,0.0684,0.48,0.2041c0.1362,0.1362,0.2041,0.2964,0.2041,0.48
		c0,0.1924-0.0679,0.354-0.2041,0.4863c-0.1357,0.1318-0.2959,0.1978-0.48,0.1978s-0.3438-0.0659-0.48-0.1978
		c-0.1357-0.1323-0.2036-0.2939-0.2036-0.4863c0-0.1836,0.0679-0.3438,0.2036-0.48
		C-1660.931-78.4721-1660.7714-78.5405-1660.5873-78.5405z M-1660.1073-70.0923h-0.96v-5.6401h0.96V-70.0923z"/>
	<path id="XMLID_810_" d="M-1653.9149-74.0522h-0.0239c-0.2241-0.2798-0.4761-0.5078-0.7563-0.6841
		c-0.2798-0.1758-0.6118-0.2642-0.9956-0.2642c-0.2881,0-0.5542,0.0562-0.7983,0.168c-0.2441,0.1123-0.4541,0.2642-0.6299,0.4561
		c-0.1763,0.1924-0.314,0.4141-0.4141,0.666s-0.1499,0.5181-0.1499,0.7983c0,0.2798,0.0459,0.5459,0.1382,0.7979
		c0.0918,0.252,0.2217,0.4741,0.3896,0.666s0.3721,0.3442,0.6123,0.4561c0.2397,0.1118,0.5078,0.168,0.8037,0.168
		c0.4082,0,0.7578-0.0859,1.0503-0.2583c0.292-0.1719,0.5537-0.4097,0.7856-0.7139h0.0244v1.2842
		c-0.2803,0.1841-0.5645,0.3262-0.8521,0.4258c-0.2881,0.1001-0.6001,0.1499-0.936,0.1499c-0.4243,0-0.8203-0.0757-1.188-0.2275
		c-0.3682-0.1519-0.686-0.3604-0.9541-0.624c-0.2681-0.2642-0.478-0.5781-0.6299-0.9424c-0.1523-0.3638-0.228-0.7578-0.228-1.1816
		c0-0.416,0.0796-0.8062,0.2397-1.1704c0.1602-0.3638,0.376-0.6797,0.6479-0.9478s0.5898-0.478,0.9541-0.6299
		c0.3638-0.1519,0.7539-0.228,1.1699-0.228c0.3042,0,0.606,0.0479,0.9062,0.144c0.2998,0.0957,0.5776,0.2358,0.834,0.4199V-74.0522z
		"/>
	<path id="XMLID_812_" d="M-1651.4789-75.1201h0.0239c0.168-0.2241,0.3398-0.4082,0.5156-0.5522
		c0.1763-0.144,0.4204-0.2158,0.7324-0.2158c0.1597,0,0.3096,0.0239,0.4497,0.0718c0.1401,0.0483,0.2778,0.1123,0.4141,0.1919
		l-0.4561,0.8765c-0.0957-0.064-0.1841-0.1221-0.2637-0.1743c-0.0801-0.0518-0.1846-0.0781-0.312-0.0781
		c-0.2642,0-0.4702,0.0742-0.6182,0.2222s-0.2583,0.3301-0.3301,0.5459c-0.0718,0.2163-0.1162,0.4443-0.1318,0.6841
		c-0.0161,0.2402-0.0239,0.4521-0.0239,0.6362v2.8198h-0.9604v-5.6401h0.9604V-75.1201z"/>
	<path id="XMLID_814_" d="M-1645.911-69.9365c-0.4082,0-0.792-0.0757-1.1519-0.2275c-0.3604-0.1519-0.6743-0.3623-0.9424-0.6304
		c-0.2681-0.2676-0.48-0.582-0.6357-0.9419c-0.1562-0.3599-0.2339-0.748-0.2339-1.1641c0-0.4155,0.0757-0.8037,0.228-1.1641
		c0.1519-0.3599,0.3618-0.6758,0.6299-0.9478s0.582-0.4858,0.9419-0.6421c0.3599-0.1558,0.748-0.2339,1.1641-0.2339
		s0.8037,0.0781,1.1641,0.2339c0.3599,0.1562,0.6738,0.3701,0.9419,0.6421s0.478,0.5879,0.6299,0.9478
		c0.1519,0.3604,0.228,0.7485,0.228,1.1641c0,0.416-0.0781,0.8042-0.2339,1.1641c-0.1562,0.3599-0.3682,0.6743-0.6362,0.9419
		c-0.2681,0.2681-0.582,0.4785-0.9419,0.6304S-1645.5033-69.9365-1645.911-69.9365z M-1645.911-75.0005
		c-0.2959,0-0.5684,0.0562-0.8159,0.168c-0.248,0.1123-0.4604,0.2622-0.6362,0.4502s-0.312,0.4082-0.4077,0.6602
		c-0.0962,0.252-0.144,0.522-0.144,0.8101c0,0.2876,0.0479,0.5576,0.144,0.8101c0.0957,0.252,0.2319,0.4736,0.4077,0.6655
		c0.1758,0.1924,0.3882,0.3423,0.6362,0.4502c0.2476,0.1079,0.52,0.1621,0.8159,0.1621s0.5679-0.0542,0.8159-0.1621
		s0.46-0.2578,0.6362-0.4502c0.1758-0.1919,0.312-0.4136,0.4077-0.6655c0.0962-0.2524,0.144-0.5225,0.144-0.8101
		c0-0.2881-0.0479-0.5581-0.144-0.8101c-0.0957-0.252-0.2319-0.4722-0.4077-0.6602c-0.1763-0.188-0.3882-0.3379-0.6362-0.4502
		C-1645.3431-74.9443-1645.6151-75.0005-1645.911-75.0005z"/>
	<path id="XMLID_817_" d="M-1639.3475-74.4243c-0.064-0.1519-0.1641-0.2861-0.2998-0.4019
		c-0.1362-0.1162-0.292-0.1743-0.4683-0.1743c-0.168,0-0.3257,0.0581-0.4736,0.1743c-0.1484,0.1157-0.2222,0.2661-0.2222,0.4497
		c0,0.1284,0.0381,0.2383,0.1138,0.3301c0.0762,0.0923,0.1743,0.1763,0.2944,0.252c0.1196,0.0762,0.2578,0.144,0.4136,0.2041
		c0.1562,0.0601,0.3184,0.126,0.4863,0.1982c0.168,0.0718,0.3301,0.1519,0.4858,0.2397c0.1562,0.0884,0.2939,0.1943,0.4141,0.3179
		c0.1201,0.1245,0.2178,0.2725,0.2939,0.4443s0.1143,0.3779,0.1143,0.6177c0,0.2642-0.0503,0.5103-0.1504,0.7383
		s-0.2378,0.4219-0.4141,0.582c-0.1758,0.1602-0.3779,0.2861-0.606,0.3779s-0.4736,0.1377-0.7378,0.1377
		c-0.48,0-0.894-0.126-1.2422-0.3779c-0.3477-0.252-0.5981-0.6016-0.75-1.0498l0.8521-0.3599
		c0.1201,0.2637,0.2622,0.48,0.4263,0.6479c0.1636,0.168,0.4058,0.252,0.7261,0.252c0.2559,0,0.4717-0.0801,0.6479-0.2402
		c0.1758-0.1597,0.2637-0.3677,0.2637-0.624c0-0.2075-0.062-0.376-0.186-0.5039s-0.2817-0.2397-0.4736-0.3359
		c-0.1924-0.0962-0.396-0.186-0.6123-0.27c-0.2158-0.084-0.4199-0.188-0.6118-0.312s-0.3501-0.2778-0.4741-0.4619
		s-0.186-0.4238-0.186-0.7202c0-0.2397,0.0439-0.4575,0.1323-0.6538c0.0879-0.1958,0.21-0.3638,0.3657-0.5039
		c0.1562-0.1401,0.334-0.248,0.5342-0.3242c0.1997-0.0757,0.4155-0.1138,0.6479-0.1138c0.3276,0,0.6279,0.1001,0.8999,0.2998
		c0.272,0.2002,0.4722,0.4482,0.6001,0.7441L-1639.3475-74.4243z"/>
	<path id="XMLID_819_" d="M-1634.3793-69.9365c-0.4082,0-0.792-0.0757-1.1519-0.2275c-0.3604-0.1519-0.6743-0.3623-0.9424-0.6304
		c-0.2681-0.2676-0.48-0.582-0.6357-0.9419c-0.1562-0.3599-0.2339-0.748-0.2339-1.1641c0-0.4155,0.0757-0.8037,0.228-1.1641
		c0.1519-0.3599,0.3618-0.6758,0.6299-0.9478s0.582-0.4858,0.9419-0.6421c0.3599-0.1558,0.748-0.2339,1.1641-0.2339
		s0.8037,0.0781,1.1641,0.2339c0.3599,0.1562,0.6738,0.3701,0.9419,0.6421s0.478,0.5879,0.6299,0.9478
		c0.1519,0.3604,0.228,0.7485,0.228,1.1641c0,0.416-0.0781,0.8042-0.2339,1.1641c-0.1562,0.3599-0.3682,0.6743-0.6362,0.9419
		c-0.2681,0.2681-0.582,0.4785-0.9419,0.6304S-1633.9716-69.9365-1634.3793-69.9365z M-1634.3793-75.0005
		c-0.2959,0-0.5684,0.0562-0.8159,0.168c-0.248,0.1123-0.4604,0.2622-0.6362,0.4502s-0.312,0.4082-0.4077,0.6602
		c-0.0962,0.252-0.144,0.522-0.144,0.8101c0,0.2876,0.0479,0.5576,0.144,0.8101c0.0957,0.252,0.2319,0.4736,0.4077,0.6655
		c0.1758,0.1924,0.3882,0.3423,0.6362,0.4502c0.2476,0.1079,0.52,0.1621,0.8159,0.1621s0.5679-0.0542,0.8159-0.1621
		s0.46-0.2578,0.6362-0.4502c0.1758-0.1919,0.312-0.4136,0.4077-0.6655c0.0962-0.2524,0.144-0.5225,0.144-0.8101
		c0-0.2881-0.0479-0.5581-0.144-0.8101c-0.0957-0.252-0.2319-0.4722-0.4077-0.6602c-0.1763-0.188-0.3882-0.3379-0.6362-0.4502
		C-1633.8114-74.9443-1634.0834-75.0005-1634.3793-75.0005z"/>
	<path id="XMLID_822_" d="M-1629.0516-70.0923h-0.96v-4.752h-0.5283v-0.8882h0.5283v-2.2437c0-0.2319,0.0098-0.4819,0.0298-0.75
		s0.0942-0.5059,0.2222-0.7144c0.1597-0.2559,0.3701-0.438,0.6299-0.5459s0.5342-0.1621,0.8223-0.1621
		c0.1118,0,0.2256,0.0103,0.3418,0.0303c0.1157,0.02,0.23,0.0498,0.3418,0.0898v0.9722c-0.1118-0.04-0.2178-0.0723-0.3179-0.0962
		s-0.21-0.0361-0.3301-0.0361c-0.1919,0-0.3418,0.0342-0.4497,0.1021c-0.1079,0.0684-0.186,0.168-0.2344,0.3003
		c-0.0479,0.1318-0.0757,0.2939-0.084,0.4858c-0.0078,0.1919-0.0117,0.4121-0.0117,0.6602v1.9077h1.4277v0.8882h-1.4277V-70.0923z"
		/>
	<path id="XMLID_824_" d="M-1625.7997-70.0923h-0.96v-4.752h-0.5879v-0.8882h0.5879v-2.0278h0.96v2.0278h1.0083v0.8882h-1.0083
		V-70.0923z"/>
</g>
<g id="XMLID_138_">
	<path id="XMLID_776_" d="M-1670.9911,316.1968v2.6875h3.0122v0.9365h-3.0122v4.4873h-1.0078v-9.0479h4.1157v0.9365H-1670.9911z"/>
	<path id="XMLID_778_" d="M-1665.327,324.3081h-0.96v-9.8994h0.96V324.3081z"/>
	<path id="XMLID_780_" d="M-1658.391,324.3081h-0.96v-0.7793h-0.0239c-0.4961,0.624-1.1445,0.9355-1.9443,0.9355
		c-0.416,0-0.79-0.082-1.1221-0.2461s-0.6157-0.3818-0.8516-0.6543c-0.2363-0.2715-0.4165-0.5859-0.54-0.9414
		c-0.1245-0.3564-0.186-0.7305-0.186-1.1221c0-0.4004,0.0615-0.7822,0.186-1.1465c0.1235-0.3633,0.3018-0.6816,0.5337-0.9541
		c0.2319-0.2715,0.5161-0.4873,0.8521-0.6475s0.7158-0.2402,1.1401-0.2402c0.3838,0,0.7441,0.084,1.0801,0.252
		s0.6196,0.4043,0.8521,0.708h0.0239v-0.8037h0.96V324.3081z M-1661.1991,319.3999c-0.2803,0-0.5322,0.0566-0.7559,0.168
		c-0.2241,0.1123-0.416,0.2627-0.5762,0.4502c-0.1602,0.1885-0.2842,0.4043-0.3721,0.6484s-0.1318,0.498-0.1318,0.7617
		c0,0.2803,0.04,0.5479,0.1201,0.8037c0.0796,0.2568,0.1978,0.4844,0.354,0.6846c0.1558,0.2002,0.3477,0.3594,0.5757,0.4795
		s0.4941,0.1807,0.7983,0.1807c0.312,0,0.5835-0.0586,0.8159-0.1738c0.2319-0.1162,0.4277-0.2725,0.5879-0.4688
		c0.1602-0.1953,0.2798-0.4219,0.3599-0.6777s0.1201-0.5283,0.1201-0.8164c0-0.2793-0.0439-0.5439-0.1318-0.792
		c-0.0884-0.2471-0.2124-0.4639-0.3721-0.6475c-0.1602-0.1836-0.3584-0.3301-0.5942-0.4385
		C-1660.6371,319.4546-1660.9032,319.3999-1661.1991,319.3999z"/>
	<path id="XMLID_783_" d="M-1655.6073,324.3081h-0.96v-4.752h-0.5879v-0.8877h0.5879v-2.0283h0.96v2.0283h1.0083v0.8877h-1.0083
		V324.3081z"/>
	<path id="XMLID_785_" d="M-1649.0555,320.648c0,0.168,0,0.3408,0,0.5166s0.0122,0.3516,0.0361,0.5273
		c0.0239,0.1768,0.064,0.3467,0.1196,0.5107c0.0562,0.1641,0.1362,0.3174,0.2402,0.4619c0.1997,0.2803,0.4697,0.4941,0.8101,0.6416
		c0.3398,0.1484,0.6777,0.2227,1.0142,0.2227c0.3276,0,0.6538-0.0703,0.978-0.2109c0.3237-0.1396,0.5898-0.3369,0.7979-0.5938
		c0.1201-0.1436,0.21-0.2998,0.27-0.4678s0.104-0.3418,0.1318-0.5225c0.0278-0.1797,0.042-0.3613,0.042-0.5459
		c0-0.1836,0-0.3633,0-0.54v-5.3877h1.0083v5.6641c0,0.248-0.0083,0.4824-0.0244,0.7021s-0.0498,0.4336-0.1021,0.6416
		c-0.0518,0.208-0.1318,0.4082-0.2397,0.6006c-0.1079,0.1914-0.25,0.3799-0.4263,0.5635c-0.3115,0.3359-0.6816,0.5928-1.1099,0.7686
		c-0.4277,0.1758-0.8701,0.2637-1.3257,0.2637c-0.4321,0-0.8545-0.0781-1.2661-0.2344c-0.4121-0.1553-0.77-0.3857-1.0742-0.6895
		c-0.1997-0.1924-0.3579-0.3857-0.4741-0.582c-0.1157-0.1963-0.2036-0.4023-0.2637-0.6182s-0.1001-0.4424-0.1201-0.6777
		c-0.02-0.2363-0.0298-0.4824-0.0298-0.7383v-5.6641h1.0078V320.648z"/>
	<path id="XMLID_787_" d="M-1640.7875,324.3081h-1.0078v-9.0479h1.0078V324.3081z"/>
	<path id="XMLID_789_" d="M-1633.6835,320.9722v0.8877h-2.46v-0.8877H-1633.6835z"/>
	<path id="XMLID_791_" d="M-1629.0033,314.8765l7.0557,7.3916v-7.0078h1.0083v9.4561l-7.0562-7.3799v6.9717h-1.0078V314.8765z"/>
	<path id="XMLID_793_" d="M-1616.5956,324.4644c-0.4082,0-0.792-0.0762-1.1519-0.2275c-0.3604-0.1523-0.6743-0.3623-0.9424-0.6309
		c-0.2681-0.2676-0.48-0.582-0.6357-0.9414c-0.1562-0.3604-0.2339-0.748-0.2339-1.1641s0.0757-0.8037,0.228-1.1641
		c0.1519-0.3604,0.3618-0.6758,0.6299-0.9482c0.2681-0.2715,0.582-0.4854,0.9419-0.6416s0.748-0.2344,1.1641-0.2344
		s0.8037,0.0781,1.1641,0.2344c0.3599,0.1562,0.6738,0.3701,0.9419,0.6416c0.2681,0.2725,0.478,0.5879,0.6299,0.9482
		s0.228,0.748,0.228,1.1641s-0.0781,0.8037-0.2339,1.1641c-0.1562,0.3594-0.3682,0.6738-0.6362,0.9414
		c-0.2681,0.2686-0.582,0.4785-0.9419,0.6309C-1615.8036,324.3882-1616.1879,324.4644-1616.5956,324.4644z M-1616.5956,319.3999
		c-0.2959,0-0.5684,0.0566-0.8159,0.168c-0.248,0.1123-0.4604,0.2627-0.6362,0.4502c-0.1758,0.1885-0.312,0.4082-0.4077,0.6602
		c-0.0962,0.252-0.144,0.5225-0.144,0.8105c0,0.2871,0.0479,0.5576,0.144,0.8096c0.0957,0.252,0.2319,0.4736,0.4077,0.666
		s0.3882,0.3418,0.6362,0.4502c0.2476,0.1074,0.52,0.1621,0.8159,0.1621s0.5679-0.0547,0.8159-0.1621
		c0.248-0.1084,0.46-0.2578,0.6362-0.4502c0.1758-0.1924,0.312-0.4141,0.4077-0.666c0.0962-0.252,0.144-0.5225,0.144-0.8096
		c0-0.2881-0.0479-0.5586-0.144-0.8105c-0.0957-0.252-0.2319-0.4717-0.4077-0.6602c-0.1763-0.1875-0.3882-0.3379-0.6362-0.4502
		C-1616.0277,319.4566-1616.2997,319.3999-1616.5956,319.3999z"/>
	<path id="XMLID_796_" d="M-1611.3993,319.2808h0.0239c0.168-0.2246,0.3398-0.4082,0.5156-0.5527
		c0.1763-0.1436,0.4204-0.2158,0.7324-0.2158c0.1597,0,0.3096,0.0244,0.4497,0.0723s0.2778,0.1123,0.4141,0.1914l-0.4561,0.877
		c-0.0957-0.0645-0.1841-0.1221-0.2637-0.1748c-0.0801-0.0518-0.1846-0.0781-0.312-0.0781c-0.2642,0-0.4702,0.0742-0.6182,0.2227
		c-0.1479,0.1475-0.2583,0.3301-0.3301,0.5459s-0.1162,0.4443-0.1318,0.6836c-0.0161,0.2402-0.0239,0.4521-0.0239,0.6367v2.8193
		h-0.9604v-5.6396h0.9604V319.2808z"/>
	<path id="XMLID_798_" d="M-1607.2357,319.2808h0.0239c0.1519-0.2324,0.3438-0.418,0.5762-0.5586
		c0.2319-0.1396,0.4917-0.21,0.7798-0.21c0.3359,0,0.6421,0.082,0.918,0.2461s0.4902,0.3945,0.6421,0.6904
		c0.168-0.3125,0.4058-0.5459,0.7139-0.7021s0.6343-0.2344,0.978-0.2344c0.3599,0,0.6558,0.0684,0.8882,0.2041
		c0.2319,0.1357,0.416,0.3145,0.5518,0.5342c0.1362,0.2197,0.23,0.4717,0.2822,0.7559c0.0518,0.2842,0.0781,0.5742,0.0781,0.8701
		v3.4316h-0.96v-3.2754c0-0.1846-0.0083-0.3721-0.0244-0.5645s-0.0581-0.3682-0.126-0.5283
		c-0.0679-0.1592-0.1699-0.2891-0.3057-0.3896c-0.1362-0.0996-0.3281-0.1504-0.5762-0.1504c-0.2803,0-0.5,0.0605-0.6602,0.1807
		s-0.2817,0.2734-0.3657,0.4619c-0.084,0.1875-0.1382,0.3936-0.1621,0.6182c-0.0239,0.2236-0.0361,0.4434-0.0361,0.6602v2.9873
		h-0.96v-3.2041c0-0.1758-0.0103-0.3633-0.0298-0.5635c-0.02-0.2002-0.0645-0.3838-0.1323-0.5518s-0.168-0.3086-0.2998-0.4209
		c-0.1318-0.1113-0.314-0.168-0.5459-0.168c-0.2803,0-0.5039,0.0645-0.6719,0.1924c-0.1685,0.1279-0.2944,0.29-0.3784,0.4863
		s-0.1377,0.4102-0.1616,0.6416c-0.0244,0.2324-0.0361,0.4561-0.0361,0.6719v2.916h-0.96v-5.6396h0.96V319.2808z"/>
	<path id="XMLID_800_" d="M-1593.8319,324.3081h-0.96v-0.7793h-0.0239c-0.4961,0.624-1.1445,0.9355-1.9443,0.9355
		c-0.416,0-0.79-0.082-1.1221-0.2461s-0.6157-0.3818-0.8516-0.6543c-0.2363-0.2715-0.4165-0.5859-0.54-0.9414
		c-0.1245-0.3564-0.186-0.7305-0.186-1.1221c0-0.4004,0.0615-0.7822,0.186-1.1465c0.1235-0.3633,0.3018-0.6816,0.5337-0.9541
		c0.2319-0.2715,0.5161-0.4873,0.8521-0.6475s0.7158-0.2402,1.1401-0.2402c0.3838,0,0.7441,0.084,1.0801,0.252
		s0.6196,0.4043,0.8521,0.708h0.0239v-0.8037h0.96V324.3081z M-1596.64,319.3999c-0.2803,0-0.5322,0.0566-0.7559,0.168
		c-0.2241,0.1123-0.416,0.2627-0.5762,0.4502c-0.1602,0.1885-0.2842,0.4043-0.3721,0.6484s-0.1318,0.498-0.1318,0.7617
		c0,0.2803,0.04,0.5479,0.1201,0.8037c0.0796,0.2568,0.1978,0.4844,0.354,0.6846c0.1558,0.2002,0.3477,0.3594,0.5757,0.4795
		s0.4941,0.1807,0.7983,0.1807c0.312,0,0.5835-0.0586,0.8159-0.1738c0.2319-0.1162,0.4277-0.2725,0.5879-0.4688
		c0.1602-0.1953,0.2798-0.4219,0.3599-0.6777s0.1201-0.5283,0.1201-0.8164c0-0.2793-0.0439-0.5439-0.1318-0.792
		c-0.0884-0.2471-0.2124-0.4639-0.3721-0.6475c-0.1602-0.1836-0.3584-0.3301-0.5942-0.4385
		C-1596.078,319.4546-1596.3441,319.3999-1596.64,319.3999z"/>
	<path id="XMLID_803_" d="M-1591.1195,324.3081h-0.96v-9.8994h0.96V324.3081z"/>
</g>
<g id="XMLID_137_">
	<path id="XMLID_760_" d="M-1663.5868,121.5811c0.0078,0.3042,0.0015,0.5957-0.0181,0.876c-0.02,0.2798-0.0645,0.5518-0.1323,0.8159
		s-0.1641,0.52-0.2876,0.7681c-0.1245,0.248-0.2905,0.4917-0.498,0.7319c-0.416,0.48-0.9204,0.8521-1.5122,1.1157
		c-0.5923,0.2642-1.2041,0.396-1.8359,0.396c-0.6401,0-1.2422-0.124-1.8062-0.3716c-0.564-0.248-1.0557-0.582-1.4761-1.002
		c-0.4199-0.4204-0.7539-0.9121-1.002-1.4761s-0.3721-1.166-0.3721-1.8062c0-0.6479,0.124-1.2578,0.3721-1.8301
		c0.248-0.5718,0.584-1.0698,1.0083-1.4941c0.4238-0.4238,0.9238-0.7598,1.5-1.0078c0.5757-0.248,1.188-0.3721,1.8359-0.3721
		c0.7998,0,1.5181,0.1699,2.1538,0.5103c0.6362,0.3398,1.1943,0.8218,1.6743,1.4458l-0.7324,0.6841
		c-0.3838-0.5361-0.8301-0.9541-1.3379-1.2539c-0.5078-0.3003-1.0981-0.4502-1.77-0.4502c-0.52,0-1.0039,0.1021-1.4517,0.3062
		c-0.4482,0.2041-0.8384,0.478-1.1704,0.8218c-0.332,0.3442-0.5938,0.7441-0.7856,1.2002
		c-0.1924,0.4561-0.2881,0.9399-0.2881,1.4521c0,0.48,0.0918,0.9399,0.2759,1.3799s0.4438,0.832,0.7803,1.1758
		c0.3359,0.3359,0.7275,0.6123,1.1758,0.8281c0.4478,0.2158,0.9121,0.3242,1.3921,0.3242c0.3916,0,0.7798-0.0679,1.1641-0.2041
		c0.3838-0.1362,0.73-0.3301,1.0376-0.582c0.3081-0.252,0.5562-0.5498,0.7441-0.894c0.188-0.3438,0.2822-0.728,0.2822-1.1519h-2.688
		v-0.936H-1663.5868z"/>
	<path id="XMLID_762_" d="M-1659.6991,126.2847c-0.4082,0-0.792-0.0757-1.1519-0.2275c-0.3604-0.1519-0.6743-0.3623-0.9424-0.6304
		c-0.2681-0.2676-0.48-0.582-0.6357-0.9419c-0.1562-0.3599-0.2339-0.748-0.2339-1.1641c0-0.4155,0.0757-0.8037,0.228-1.1641
		c0.1519-0.3599,0.3618-0.6758,0.6299-0.9478s0.582-0.4858,0.9419-0.6421c0.3599-0.1558,0.748-0.2339,1.1641-0.2339
		s0.8037,0.0781,1.1641,0.2339c0.3599,0.1562,0.6738,0.3701,0.9419,0.6421s0.478,0.5879,0.6299,0.9478
		c0.1519,0.3604,0.228,0.7485,0.228,1.1641c0,0.416-0.0781,0.8042-0.2339,1.1641c-0.1562,0.3599-0.3682,0.6743-0.6362,0.9419
		c-0.2681,0.2681-0.582,0.4785-0.9419,0.6304S-1659.2914,126.2847-1659.6991,126.2847z M-1659.6991,121.2207
		c-0.2959,0-0.5684,0.0562-0.8159,0.168c-0.248,0.1123-0.4604,0.2622-0.6362,0.4502s-0.312,0.4082-0.4077,0.6602
		c-0.0962,0.252-0.144,0.522-0.144,0.8101c0,0.2876,0.0479,0.5576,0.144,0.8101c0.0957,0.252,0.2319,0.4736,0.4077,0.6655
		c0.1758,0.1924,0.3882,0.3423,0.6362,0.4502c0.2476,0.1079,0.52,0.1621,0.8159,0.1621s0.5679-0.0542,0.8159-0.1621
		s0.46-0.2578,0.6362-0.4502c0.1758-0.1919,0.312-0.4136,0.4077-0.6655c0.0962-0.2524,0.144-0.5225,0.144-0.8101
		c0-0.2881-0.0479-0.5581-0.144-0.8101c-0.0957-0.252-0.2319-0.4722-0.4077-0.6602c-0.1763-0.188-0.3882-0.3379-0.6362-0.4502
		C-1659.1312,121.2769-1659.4032,121.2207-1659.6991,121.2207z"/>
	<path id="XMLID_765_" d="M-1652.955,126.2847c-0.4082,0-0.792-0.0757-1.1519-0.2275c-0.3604-0.1519-0.6743-0.3623-0.9424-0.6304
		c-0.2681-0.2676-0.48-0.582-0.6357-0.9419c-0.1562-0.3599-0.2339-0.748-0.2339-1.1641c0-0.4155,0.0757-0.8037,0.228-1.1641
		c0.1519-0.3599,0.3618-0.6758,0.6299-0.9478s0.582-0.4858,0.9419-0.6421c0.3599-0.1558,0.748-0.2339,1.1641-0.2339
		s0.8037,0.0781,1.1641,0.2339c0.3599,0.1562,0.6738,0.3701,0.9419,0.6421s0.478,0.5879,0.6299,0.9478
		c0.1519,0.3604,0.228,0.7485,0.228,1.1641c0,0.416-0.0781,0.8042-0.2339,1.1641c-0.1562,0.3599-0.3682,0.6743-0.6362,0.9419
		c-0.2681,0.2681-0.582,0.4785-0.9419,0.6304S-1652.5472,126.2847-1652.955,126.2847z M-1652.955,121.2207
		c-0.2959,0-0.5684,0.0562-0.8159,0.168c-0.248,0.1123-0.4604,0.2622-0.6362,0.4502s-0.312,0.4082-0.4077,0.6602
		c-0.0962,0.252-0.144,0.522-0.144,0.8101c0,0.2876,0.0479,0.5576,0.144,0.8101c0.0957,0.252,0.2319,0.4736,0.4077,0.6655
		c0.1758,0.1924,0.3882,0.3423,0.6362,0.4502c0.2476,0.1079,0.52,0.1621,0.8159,0.1621s0.5679-0.0542,0.8159-0.1621
		s0.46-0.2578,0.6362-0.4502c0.1758-0.1919,0.312-0.4136,0.4077-0.6655c0.0962-0.2524,0.144-0.5225,0.144-0.8101
		c0-0.2881-0.0479-0.5581-0.144-0.8101c-0.0957-0.252-0.2319-0.4722-0.4077-0.6602c-0.1763-0.188-0.3882-0.3379-0.6362-0.4502
		C-1652.3871,121.2769-1652.6591,121.2207-1652.955,121.2207z"/>
	<path id="XMLID_768_" d="M-1643.5834,125.8531c0,0.2241-0.0039,0.4419-0.0122,0.6538c-0.0078,0.2119-0.0298,0.418-0.0659,0.6182
		c-0.0356,0.1997-0.0918,0.396-0.168,0.5879s-0.186,0.3799-0.3301,0.564c-0.2637,0.3359-0.5879,0.5859-0.9717,0.75
		c-0.3843,0.1641-0.7881,0.2461-1.2119,0.2461c-0.3921,0-0.7563-0.0601-1.0923-0.1802c-0.3359-0.1196-0.626-0.292-0.8701-0.5156
		c-0.2441-0.2241-0.438-0.4966-0.582-0.8164c-0.144-0.3198-0.2197-0.6797-0.228-1.0801h0.9604
		c0.0078,0.5283,0.1797,0.9443,0.5156,1.248c0.3359,0.3042,0.7642,0.456,1.2842,0.456c0.3677,0,0.6699-0.064,0.9058-0.1919
		c0.2363-0.1279,0.4219-0.2998,0.5581-0.5161c0.1362-0.2158,0.228-0.4658,0.2759-0.75c0.0483-0.2837,0.0723-0.5859,0.0723-0.9058
		v-0.6719h-0.0239c-0.2324,0.2959-0.52,0.5259-0.8643,0.6899c-0.3438,0.1636-0.708,0.2456-1.0918,0.2456
		c-0.4082,0-0.7783-0.0796-1.1099-0.2397c-0.332-0.1602-0.6162-0.376-0.8521-0.6479c-0.2363-0.272-0.416-0.5859-0.54-0.9419
		s-0.186-0.73-0.186-1.1221s0.064-0.77,0.1919-1.1343c0.1279-0.3638,0.3101-0.6836,0.5459-0.96
		c0.2358-0.2759,0.522-0.4956,0.8579-0.6597c0.3364-0.1641,0.7124-0.2461,1.1284-0.2461c0.3916,0,0.7515,0.084,1.0796,0.252
		s0.6079,0.4038,0.8403,0.708h0.0239v-0.8042h0.96V125.8531z M-1646.3915,121.2207c-0.2798,0-0.5322,0.0562-0.7559,0.168
		c-0.2241,0.1123-0.416,0.2622-0.5762,0.4502s-0.2837,0.4043-0.3721,0.6479c-0.0879,0.2441-0.1318,0.498-0.1318,0.7622
		c0,0.2798,0.04,0.5479,0.1201,0.8037c0.0796,0.2563,0.1978,0.4844,0.354,0.6841c0.1558,0.2002,0.3481,0.3599,0.5757,0.48
		c0.228,0.1201,0.4941,0.1802,0.7983,0.1802c0.312,0,0.584-0.0581,0.8159-0.1738c0.2319-0.1162,0.4277-0.272,0.5879-0.4683
		c0.1602-0.1958,0.2798-0.4219,0.3599-0.6777c0.0801-0.2563,0.1201-0.5283,0.1201-0.8164c0-0.2798-0.0439-0.5439-0.1318-0.792
		c-0.0884-0.2476-0.2119-0.4639-0.3721-0.6479c-0.1602-0.1836-0.3579-0.3301-0.5938-0.438
		C-1645.8295,121.2749-1646.0956,121.2207-1646.3915,121.2207z"/>
	<path id="XMLID_771_" d="M-1640.7753,126.1289h-0.96v-9.8999h0.96V126.1289z"/>
	<path id="XMLID_773_" d="M-1637.601,123.9697c0.1177,0.2363,0.2681,0.436,0.4517,0.5996c0.1841,0.1631,0.3848,0.2847,0.603,0.3638
		c0.2178,0.0796,0.4512,0.1133,0.7002,0.1016c0.2485-0.0117,0.4946-0.0781,0.7383-0.1992c0.3652-0.1816,0.623-0.4321,0.7725-0.752
		s0.2314-0.6709,0.2471-1.0537l0.939,0.0562c-0.0195,0.5728-0.167,1.0811-0.4419,1.5259c-0.2749,0.4443-0.6704,0.7949-1.1865,1.0508
		c-0.3799,0.189-0.7559,0.2905-1.1274,0.3057c-0.3726,0.0151-0.7236-0.0405-1.0542-0.167c-0.3306-0.126-0.6313-0.3184-0.9028-0.5767
		c-0.271-0.2583-0.4971-0.5703-0.6787-0.9355c-0.1851-0.3726-0.3066-0.7524-0.3643-1.1392
		c-0.0581-0.3862-0.0444-0.7549,0.0405-1.1055c0.085-0.3501,0.2446-0.6724,0.478-0.9673c0.2334-0.2944,0.5469-0.5396,0.9409-0.7349
		c0.4087-0.2031,0.8052-0.3037,1.1899-0.3027c0.3843,0.0015,0.7446,0.084,1.0806,0.2476s0.6357,0.3945,0.8994,0.6919
		c0.2637,0.2979,0.4775,0.6387,0.6411,1.0215L-1637.601,123.9697z M-1634.9003,121.7178c-0.1177-0.1646-0.2612-0.3057-0.4307-0.4224
		c-0.1699-0.1167-0.3491-0.2041-0.5386-0.2617s-0.3857-0.0786-0.5879-0.0635c-0.2021,0.0156-0.3965,0.0693-0.5825,0.1621
		c-0.1865,0.0923-0.3486,0.2153-0.4868,0.3687c-0.1382,0.1538-0.2466,0.3262-0.3262,0.5171
		c-0.0791,0.1914-0.1255,0.3906-0.1387,0.5981s0.0107,0.4077,0.0708,0.6011L-1634.9003,121.7178z"/>
</g>
<g id="XMLID_141_">
	<path id="XMLID_735_" d="M-1181.7811-78.2041v2.688h3.0117v0.936h-3.0117v4.4878h-1.0078v-9.0479h4.1152v0.936H-1181.7811z"/>
	<path id="XMLID_737_" d="M-1176.1171-70.0923h-0.96v-9.8999h0.96V-70.0923z"/>
	<path id="XMLID_739_" d="M-1169.1815-70.0923h-0.96v-0.7798h-0.0234c-0.4961,0.624-1.1445,0.9355-1.9443,0.9355
		c-0.416,0-0.79-0.082-1.1221-0.2456c-0.332-0.1641-0.6162-0.3823-0.8516-0.6543c-0.2363-0.272-0.417-0.5859-0.54-0.9419
		c-0.125-0.356-0.1865-0.73-0.1865-1.1221c0-0.3999,0.0615-0.7817,0.1865-1.146c0.123-0.3638,0.3018-0.6816,0.5332-0.9541
		c0.2324-0.2715,0.5166-0.4878,0.8525-0.6479c0.3359-0.1597,0.7158-0.2397,1.1396-0.2397c0.3838,0,0.7441,0.084,1.0801,0.252
		s0.6201,0.4038,0.8525,0.708h0.0234v-0.8042h0.96V-70.0923z M-1171.9891-75.0005c-0.2803,0-0.5322,0.0562-0.7559,0.168
		c-0.2246,0.1123-0.416,0.2622-0.5762,0.4502s-0.2842,0.4043-0.3721,0.6479c-0.0879,0.2441-0.1318,0.498-0.1318,0.7622
		c0,0.2798,0.04,0.5479,0.1201,0.8037c0.0791,0.2563,0.1973,0.4844,0.3535,0.6841c0.1562,0.2002,0.3477,0.3599,0.5762,0.48
		c0.2275,0.1201,0.4941,0.1802,0.7979,0.1802c0.3125,0,0.584-0.0581,0.8164-0.1738c0.2314-0.1162,0.4277-0.272,0.5879-0.4683
		c0.1602-0.1958,0.2793-0.4219,0.3594-0.6777c0.0801-0.2563,0.1201-0.5283,0.1201-0.8164c0-0.2798-0.0439-0.5439-0.1318-0.792
		c-0.0879-0.2476-0.2119-0.4639-0.3721-0.6479c-0.1602-0.1836-0.3584-0.3301-0.5938-0.438
		C-1171.4276-74.9463-1171.6932-75.0005-1171.9891-75.0005z"/>
	<path id="XMLID_742_" d="M-1166.3973-70.0923h-0.96v-4.752h-0.5879v-0.8882h0.5879v-2.0278h0.96v2.0278h1.0078v0.8882h-1.0078
		V-70.0923z"/>
	<path id="XMLID_744_" d="M-1159.8456-73.7524c0,0.168,0,0.3403,0,0.5161c0,0.1763,0.0117,0.3521,0.0361,0.5278
		c0.0234,0.1763,0.0635,0.3462,0.1191,0.5103c0.0566,0.1641,0.1367,0.3179,0.2402,0.4619c0.2002,0.2803,0.4697,0.4941,0.8105,0.6421
		c0.3398,0.1479,0.6777,0.2222,1.0137,0.2222c0.3281,0,0.6543-0.0703,0.9785-0.2104c0.3232-0.1396,0.5898-0.3374,0.7979-0.5938
		c0.1201-0.144,0.21-0.2998,0.2695-0.4678c0.0605-0.1685,0.1045-0.3423,0.1318-0.5225c0.0283-0.1797,0.042-0.3618,0.042-0.5459
		c0-0.1836,0-0.3638,0-0.54v-5.3877h1.0088v5.6641c0,0.248-0.0088,0.4819-0.0244,0.7017c-0.0166,0.2202-0.0498,0.4341-0.1025,0.6421
		c-0.0518,0.208-0.1318,0.4082-0.2393,0.6001c-0.1084,0.1919-0.25,0.3799-0.4268,0.564c-0.3115,0.3359-0.6816,0.5923-1.1094,0.7681
		s-0.8701,0.2637-1.3262,0.2637c-0.4316,0-0.8545-0.0776-1.2656-0.2339c-0.4121-0.1558-0.7705-0.3857-1.0742-0.6899
		c-0.2002-0.1919-0.3584-0.3857-0.4746-0.582c-0.1152-0.1958-0.2031-0.4019-0.2637-0.6177
		c-0.0596-0.2163-0.0996-0.4424-0.1201-0.6782c-0.0195-0.2358-0.0293-0.4819-0.0293-0.7378v-5.6641h1.0078V-73.7524z"/>
	<path id="XMLID_746_" d="M-1151.578-70.0923h-1.0078v-9.0479h1.0078V-70.0923z"/>
	<path id="XMLID_748_" d="M-1144.4735-73.4282v0.8877h-2.46v-0.8877H-1144.4735z"/>
	<path id="XMLID_750_" d="M-1139.8534-79.1401h1.7041c0.3359,0,0.6592,0.0137,0.9717,0.042
		c0.3115,0.0278,0.6123,0.082,0.8994,0.1616c0.2881,0.0801,0.5703,0.1924,0.8467,0.3364c0.2754,0.144,0.5459,0.3281,0.8096,0.5518
		c0.5205,0.4482,0.9004,0.9644,1.1406,1.5479c0.2393,0.5845,0.3594,1.2163,0.3594,1.896c0,0.6646-0.1201,1.2803-0.3594,1.8481
		c-0.2402,0.5684-0.6123,1.0762-1.1162,1.5239c-0.2725,0.2402-0.5439,0.4341-0.8164,0.582
		c-0.2715,0.1484-0.5537,0.2642-0.8457,0.3481s-0.5957,0.1401-0.9121,0.168c-0.3164,0.0283-0.6504,0.042-1.002,0.042h-1.6797
		V-79.1401z M-1138.1141-71.0283c0.2725,0,0.5361-0.0122,0.792-0.0361s0.502-0.0698,0.7383-0.1377s0.4639-0.1641,0.6846-0.2881
		c0.2197-0.124,0.4336-0.2822,0.6416-0.4741c0.376-0.3521,0.6582-0.7559,0.8457-1.2119c0.1885-0.4561,0.2822-0.936,0.2822-1.4399
		c0-0.52-0.0977-1.0161-0.2939-1.4883c-0.1963-0.4717-0.4902-0.8799-0.8818-1.2236c-0.416-0.3682-0.8545-0.606-1.3145-0.7144
		c-0.46-0.1079-0.958-0.1616-1.4941-0.1616h-0.7314v7.1758H-1138.1141z"/>
	<path id="XMLID_753_" d="M-1126.5702-70.0923h-0.96v-0.7798h-0.0234c-0.4961,0.624-1.1445,0.9355-1.9443,0.9355
		c-0.416,0-0.79-0.082-1.1221-0.2456c-0.332-0.1641-0.6162-0.3823-0.8516-0.6543c-0.2363-0.272-0.417-0.5859-0.54-0.9419
		c-0.125-0.356-0.1865-0.73-0.1865-1.1221c0-0.3999,0.0615-0.7817,0.1865-1.146c0.123-0.3638,0.3018-0.6816,0.5332-0.9541
		c0.2324-0.2715,0.5166-0.4878,0.8525-0.6479c0.3359-0.1597,0.7158-0.2397,1.1396-0.2397c0.3838,0,0.7441,0.084,1.0801,0.252
		s0.6201,0.4038,0.8525,0.708h0.0234v-0.8042h0.96V-70.0923z M-1129.3778-75.0005c-0.2803,0-0.5322,0.0562-0.7559,0.168
		c-0.2246,0.1123-0.416,0.2622-0.5762,0.4502s-0.2842,0.4043-0.3721,0.6479c-0.0879,0.2441-0.1318,0.498-0.1318,0.7622
		c0,0.2798,0.04,0.5479,0.1201,0.8037c0.0791,0.2563,0.1973,0.4844,0.3535,0.6841c0.1562,0.2002,0.3477,0.3599,0.5762,0.48
		c0.2275,0.1201,0.4941,0.1802,0.7979,0.1802c0.3125,0,0.584-0.0581,0.8164-0.1738c0.2314-0.1162,0.4277-0.272,0.5879-0.4683
		c0.1602-0.1958,0.2793-0.4219,0.3594-0.6777c0.0801-0.2563,0.1201-0.5283,0.1201-0.8164c0-0.2798-0.0439-0.5439-0.1318-0.792
		c-0.0879-0.2476-0.2119-0.4639-0.3721-0.6479c-0.1602-0.1836-0.3584-0.3301-0.5938-0.438
		C-1128.8163-74.9463-1129.0819-75.0005-1129.3778-75.0005z"/>
	<path id="XMLID_756_" d="M-1123.8817-75.1201h0.0234c0.168-0.2241,0.3398-0.4082,0.5156-0.5522
		c0.1768-0.144,0.4209-0.2158,0.7324-0.2158c0.1602,0,0.3096,0.0239,0.4502,0.0718c0.1396,0.0483,0.2773,0.1123,0.4141,0.1919
		l-0.4561,0.8765c-0.0957-0.064-0.1846-0.1221-0.2637-0.1743c-0.0801-0.0518-0.1846-0.0781-0.3125-0.0781
		c-0.2637,0-0.4697,0.0742-0.6182,0.2222c-0.1475,0.1479-0.2578,0.3301-0.3301,0.5459c-0.0713,0.2163-0.1162,0.4443-0.1318,0.6841
		c-0.0156,0.2402-0.0234,0.4521-0.0234,0.6362v2.8198h-0.9609v-5.6401h0.9609V-75.1201z"/>
	<path id="XMLID_758_" d="M-1119.8622-73.644l2.0518-2.0884h1.2842l-2.4121,2.3999l2.8682,3.2402h-1.2715l-2.2686-2.5679
		l-0.252,0.252v2.3159h-0.96v-9.8999h0.96V-73.644z"/>
</g>
<g id="XMLID_140_">
	<path id="XMLID_712_" d="M-1181.7821,316.1968v2.6875h3.0127v0.9365h-3.0127v4.4873h-1.0078v-9.0479h4.1162v0.9365H-1181.7821z"/>
	<path id="XMLID_714_" d="M-1176.118,324.3081h-0.96v-9.8994h0.96V324.3081z"/>
	<path id="XMLID_716_" d="M-1169.1815,324.3081h-0.96v-0.7793h-0.0244c-0.4961,0.624-1.1445,0.9355-1.9443,0.9355
		c-0.416,0-0.79-0.082-1.1221-0.2461s-0.6152-0.3818-0.8516-0.6543c-0.2363-0.2715-0.416-0.5859-0.54-0.9414
		c-0.124-0.3564-0.1855-0.7305-0.1855-1.1221c0-0.4004,0.0615-0.7822,0.1855-1.1465c0.124-0.3633,0.3018-0.6816,0.5342-0.9541
		c0.2314-0.2715,0.5156-0.4873,0.8516-0.6475s0.7158-0.2402,1.1406-0.2402c0.3838,0,0.7441,0.084,1.0801,0.252
		s0.6191,0.4043,0.8516,0.708h0.0244v-0.8037h0.96V324.3081z M-1171.9901,319.3999c-0.2803,0-0.5322,0.0566-0.7559,0.168
		c-0.2236,0.1123-0.416,0.2627-0.5762,0.4502c-0.1602,0.1885-0.2842,0.4043-0.3721,0.6484s-0.1318,0.498-0.1318,0.7617
		c0,0.2803,0.04,0.5479,0.1201,0.8037c0.0801,0.2568,0.1982,0.4844,0.3545,0.6846c0.1553,0.2002,0.3477,0.3594,0.5752,0.4795
		c0.2285,0.1201,0.4941,0.1807,0.7988,0.1807c0.3115,0,0.583-0.0586,0.8154-0.1738c0.2324-0.1162,0.4277-0.2725,0.5879-0.4688
		c0.1602-0.1953,0.2803-0.4219,0.3604-0.6777s0.1201-0.5283,0.1201-0.8164c0-0.2793-0.0439-0.5439-0.1318-0.792
		c-0.0889-0.2471-0.2129-0.4639-0.3721-0.6475c-0.1602-0.1836-0.3584-0.3301-0.5947-0.4385
		C-1171.4276,319.4546-1171.6942,319.3999-1171.9901,319.3999z"/>
	<path id="XMLID_719_" d="M-1166.3983,324.3081h-0.96v-4.752h-0.5879v-0.8877h0.5879v-2.0283h0.96v2.0283h1.0088v0.8877h-1.0088
		V324.3081z"/>
	<path id="XMLID_721_" d="M-1153.9305,317.2408c-0.3594-0.376-0.7783-0.6699-1.2539-0.8828
		c-0.4756-0.2119-0.9775-0.3174-1.5059-0.3174c-0.5039,0-0.9775,0.1016-1.4219,0.3057s-0.8301,0.4785-1.1582,0.8223
		s-0.5879,0.7422-0.7803,1.1943c-0.1914,0.4512-0.2881,0.9258-0.2881,1.4219s0.0967,0.9697,0.2881,1.4219
		c0.1924,0.4521,0.4541,0.8496,0.7861,1.1934c0.332,0.3447,0.7217,0.6182,1.1699,0.8223s0.9238,0.3066,1.4287,0.3066
		c0.5117,0,1.0059-0.1104,1.4814-0.3301c0.4756-0.2207,0.8945-0.5107,1.2539-0.8701v1.248
		c-0.3916,0.2803-0.8203,0.498-1.2842,0.6533c-0.4639,0.1562-0.9355,0.2344-1.416,0.2344c-0.6396,0-1.2461-0.1221-1.8174-0.3662
		c-0.5723-0.2441-1.0723-0.5762-1.5-0.9961c-0.4287-0.4199-0.7686-0.9121-1.0205-1.4756c-0.252-0.5645-0.3779-1.166-0.3779-1.8057
		c0-0.6484,0.124-1.2588,0.3721-1.8301c0.248-0.5723,0.5859-1.0723,1.0146-1.5c0.4277-0.4287,0.9277-0.7666,1.5-1.0146
		c0.5713-0.248,1.1816-0.3721,1.8291-0.3721c1.0088,0,1.9082,0.2969,2.7002,0.8887V317.2408z"/>
	<path id="XMLID_723_" d="M-1149.7665,324.4644c-0.4082,0-0.792-0.0762-1.1514-0.2275c-0.3604-0.1523-0.6748-0.3623-0.9424-0.6309
		c-0.2686-0.2676-0.4805-0.582-0.6357-0.9414c-0.1562-0.3604-0.2344-0.748-0.2344-1.1641s0.0762-0.8037,0.2285-1.1641
		c0.1514-0.3604,0.3613-0.6758,0.6299-0.9482c0.2676-0.2715,0.582-0.4854,0.9414-0.6416c0.3604-0.1562,0.748-0.2344,1.1641-0.2344
		s0.8037,0.0781,1.1641,0.2344s0.6738,0.3701,0.9424,0.6416c0.2676,0.2725,0.4775,0.5879,0.6299,0.9482
		c0.1514,0.3604,0.2275,0.748,0.2275,1.1641s-0.0781,0.8037-0.2334,1.1641c-0.1562,0.3594-0.3682,0.6738-0.6367,0.9414
		c-0.2676,0.2686-0.582,0.4785-0.9414,0.6309C-1148.9745,324.3882-1149.3583,324.4644-1149.7665,324.4644z M-1149.7665,319.3999
		c-0.2959,0-0.5684,0.0566-0.8154,0.168c-0.248,0.1123-0.4609,0.2627-0.6367,0.4502c-0.1758,0.1885-0.3115,0.4082-0.4072,0.6602
		c-0.0967,0.252-0.1445,0.5225-0.1445,0.8105c0,0.2871,0.0479,0.5576,0.1445,0.8096c0.0957,0.252,0.2314,0.4736,0.4072,0.666
		s0.3887,0.3418,0.6367,0.4502c0.2471,0.1074,0.5195,0.1621,0.8154,0.1621s0.5684-0.0547,0.8164-0.1621
		c0.248-0.1084,0.46-0.2578,0.6357-0.4502s0.3125-0.4141,0.4082-0.666s0.1436-0.5225,0.1436-0.8096
		c0-0.2881-0.0479-0.5586-0.1436-0.8105s-0.2324-0.4717-0.4082-0.6602c-0.1758-0.1875-0.3877-0.3379-0.6357-0.4502
		C-1149.1981,319.4566-1149.4706,319.3999-1149.7665,319.3999z"/>
	<path id="XMLID_726_" d="M-1144.5458,324.3081h-0.96v-9.8994h0.96V324.3081z"/>
	<path id="XMLID_728_" d="M-1140.2987,324.4644c-0.4082,0-0.792-0.0762-1.1514-0.2275c-0.3604-0.1523-0.6748-0.3623-0.9424-0.6309
		c-0.2686-0.2676-0.4805-0.582-0.6357-0.9414c-0.1562-0.3604-0.2344-0.748-0.2344-1.1641s0.0762-0.8037,0.2285-1.1641
		c0.1514-0.3604,0.3613-0.6758,0.6299-0.9482c0.2676-0.2715,0.582-0.4854,0.9414-0.6416c0.3604-0.1562,0.748-0.2344,1.1641-0.2344
		s0.8037,0.0781,1.1641,0.2344s0.6738,0.3701,0.9424,0.6416c0.2676,0.2725,0.4775,0.5879,0.6299,0.9482
		c0.1514,0.3604,0.2275,0.748,0.2275,1.1641s-0.0781,0.8037-0.2334,1.1641c-0.1562,0.3594-0.3682,0.6738-0.6367,0.9414
		c-0.2676,0.2686-0.582,0.4785-0.9414,0.6309C-1139.5067,324.3882-1139.8905,324.4644-1140.2987,324.4644z M-1140.2987,319.3999
		c-0.2959,0-0.5684,0.0566-0.8154,0.168c-0.248,0.1123-0.4609,0.2627-0.6367,0.4502c-0.1758,0.1885-0.3115,0.4082-0.4072,0.6602
		c-0.0967,0.252-0.1445,0.5225-0.1445,0.8105c0,0.2871,0.0479,0.5576,0.1445,0.8096c0.0957,0.252,0.2314,0.4736,0.4072,0.666
		s0.3887,0.3418,0.6367,0.4502c0.2471,0.1074,0.5195,0.1621,0.8154,0.1621s0.5684-0.0547,0.8164-0.1621
		c0.248-0.1084,0.46-0.2578,0.6357-0.4502s0.3125-0.4141,0.4082-0.666s0.1436-0.5225,0.1436-0.8096
		c0-0.2881-0.0479-0.5586-0.1436-0.8105s-0.2324-0.4717-0.4082-0.6602c-0.1758-0.1875-0.3877-0.3379-0.6357-0.4502
		C-1139.7303,319.4566-1140.0028,319.3999-1140.2987,319.3999z"/>
	<path id="XMLID_731_" d="M-1135.1024,319.2808h0.0244c0.168-0.2246,0.3398-0.4082,0.5156-0.5527
		c0.1758-0.1436,0.4199-0.2158,0.7324-0.2158c0.1592,0,0.3096,0.0244,0.4492,0.0723c0.1406,0.0479,0.2783,0.1123,0.4141,0.1914
		l-0.4561,0.877c-0.0957-0.0645-0.1836-0.1221-0.2637-0.1748c-0.0801-0.0518-0.1846-0.0781-0.3115-0.0781
		c-0.2646,0-0.4707,0.0742-0.6182,0.2227c-0.1484,0.1475-0.2588,0.3301-0.3301,0.5459c-0.0723,0.2158-0.1162,0.4443-0.1318,0.6836
		c-0.0166,0.2402-0.0244,0.4521-0.0244,0.6367v2.8193h-0.96v-5.6396h0.96V319.2808z"/>
	<path id="XMLID_733_" d="M-1129.7147,319.9761c-0.0635-0.1514-0.1641-0.2861-0.2998-0.4014
		c-0.1357-0.1162-0.292-0.1748-0.4678-0.1748c-0.168,0-0.3262,0.0586-0.4736,0.1748c-0.1484,0.1152-0.2227,0.2656-0.2227,0.4492
		c0,0.1289,0.0381,0.2383,0.1143,0.3301c0.0762,0.0928,0.1738,0.1768,0.2939,0.252c0.1201,0.0762,0.2578,0.1445,0.4141,0.2041
		c0.1562,0.0605,0.3184,0.126,0.4863,0.1982s0.3301,0.1523,0.4854,0.2402c0.1562,0.0879,0.2939,0.1943,0.4141,0.3174
		c0.1201,0.125,0.2178,0.2725,0.2939,0.4443s0.1143,0.3779,0.1143,0.6182c0,0.2637-0.0498,0.5098-0.1504,0.7383
		c-0.0996,0.2275-0.2373,0.4219-0.4141,0.582c-0.1758,0.1602-0.3779,0.2861-0.6055,0.3779
		c-0.2285,0.0918-0.4736,0.1377-0.7383,0.1377c-0.4795,0-0.8936-0.126-1.2422-0.3779c-0.3477-0.252-0.5977-0.6016-0.75-1.0498
		l0.8525-0.3604c0.1201,0.2637,0.2617,0.4805,0.4258,0.6484s0.4062,0.252,0.7266,0.252c0.2559,0,0.4717-0.0801,0.6475-0.2402
		s0.2637-0.3682,0.2637-0.624c0-0.208-0.0615-0.376-0.1855-0.5039s-0.2822-0.2402-0.4736-0.3359
		c-0.1924-0.0967-0.3965-0.1865-0.6123-0.2705s-0.4199-0.1875-0.6123-0.3115c-0.1914-0.124-0.3496-0.2783-0.4736-0.4619
		c-0.124-0.1846-0.1865-0.4238-0.1865-0.7207c0-0.2393,0.0439-0.457,0.1328-0.6533c0.0879-0.1963,0.21-0.3643,0.3652-0.5039
		c0.1562-0.1406,0.334-0.248,0.5342-0.3242s0.416-0.1143,0.6484-0.1143c0.3271,0,0.6279,0.1006,0.8994,0.2998
		c0.2725,0.2002,0.4727,0.4482,0.6006,0.7441L-1129.7147,319.9761z"/>
</g>
<g id="XMLID_139_">
	<path id="XMLID_685_" d="M-1181.7811,118.0171v2.688h3.0117v0.936h-3.0117v4.4878h-1.0078v-9.0479h4.1152v0.936H-1181.7811z"/>
	<path id="XMLID_687_" d="M-1176.1171,126.1289h-0.96v-9.8999h0.96V126.1289z"/>
	<path id="XMLID_689_" d="M-1169.1815,126.1289h-0.96v-0.7798h-0.0234c-0.4961,0.624-1.1445,0.9355-1.9443,0.9355
		c-0.416,0-0.79-0.082-1.1221-0.2456c-0.332-0.1641-0.6162-0.3823-0.8516-0.6543c-0.2363-0.272-0.417-0.5859-0.54-0.9419
		c-0.125-0.356-0.1865-0.73-0.1865-1.1221c0-0.3999,0.0615-0.7817,0.1865-1.146c0.123-0.3638,0.3018-0.6816,0.5332-0.9541
		c0.2324-0.2715,0.5166-0.4878,0.8525-0.6479c0.3359-0.1597,0.7158-0.2397,1.1396-0.2397c0.3838,0,0.7441,0.084,1.0801,0.252
		s0.6201,0.4038,0.8525,0.708h0.0234v-0.8042h0.96V126.1289z M-1171.9891,121.2207c-0.2803,0-0.5322,0.0562-0.7559,0.168
		c-0.2246,0.1123-0.416,0.2622-0.5762,0.4502s-0.2842,0.4043-0.3721,0.6479c-0.0879,0.2441-0.1318,0.498-0.1318,0.7622
		c0,0.2798,0.04,0.5479,0.1201,0.8037c0.0791,0.2563,0.1973,0.4844,0.3535,0.6841c0.1562,0.2002,0.3477,0.3599,0.5762,0.48
		c0.2275,0.1201,0.4941,0.1802,0.7979,0.1802c0.3125,0,0.584-0.0581,0.8164-0.1738c0.2314-0.1162,0.4277-0.272,0.5879-0.4683
		c0.1602-0.1958,0.2793-0.4219,0.3594-0.6777c0.0801-0.2563,0.1201-0.5283,0.1201-0.8164c0-0.2798-0.0439-0.5439-0.1318-0.792
		c-0.0879-0.2476-0.2119-0.4639-0.3721-0.6479c-0.1602-0.1836-0.3584-0.3301-0.5938-0.438
		C-1171.4276,121.2749-1171.6932,121.2207-1171.9891,121.2207z"/>
	<path id="XMLID_692_" d="M-1166.3973,126.1289h-0.96v-4.752h-0.5879v-0.8882h0.5879v-2.0278h0.96v2.0278h1.0078v0.8882h-1.0078
		V126.1289z"/>
	<path id="XMLID_694_" d="M-1159.8456,122.4688c0,0.168,0,0.3403,0,0.5161c0,0.1763,0.0117,0.3521,0.0361,0.5278
		c0.0234,0.1763,0.0635,0.3462,0.1191,0.5103c0.0566,0.1641,0.1367,0.3179,0.2402,0.4619c0.2002,0.2803,0.4697,0.4941,0.8105,0.6421
		c0.3398,0.1479,0.6777,0.2222,1.0137,0.2222c0.3281,0,0.6543-0.0703,0.9785-0.2104c0.3232-0.1396,0.5898-0.3374,0.7979-0.5938
		c0.1201-0.144,0.21-0.2998,0.2695-0.4678c0.0605-0.1685,0.1045-0.3423,0.1318-0.5225c0.0283-0.1797,0.042-0.3618,0.042-0.5459
		c0-0.1836,0-0.3638,0-0.54v-5.3877h1.0088v5.6641c0,0.248-0.0088,0.4819-0.0244,0.7017c-0.0166,0.2202-0.0498,0.4341-0.1025,0.6421
		c-0.0518,0.208-0.1318,0.4082-0.2393,0.6001c-0.1084,0.1919-0.25,0.3799-0.4268,0.564c-0.3115,0.3359-0.6816,0.5923-1.1094,0.7681
		s-0.8701,0.2637-1.3262,0.2637c-0.4316,0-0.8545-0.0776-1.2656-0.2339c-0.4121-0.1558-0.7705-0.3857-1.0742-0.6899
		c-0.2002-0.1919-0.3584-0.3857-0.4746-0.582c-0.1152-0.1958-0.2031-0.4019-0.2637-0.6177
		c-0.0596-0.2163-0.0996-0.4424-0.1201-0.6782c-0.0195-0.2358-0.0293-0.4819-0.0293-0.7378v-5.6641h1.0078V122.4688z"/>
	<path id="XMLID_696_" d="M-1151.578,126.1289h-1.0078v-9.0479h1.0078V126.1289z"/>
	<path id="XMLID_698_" d="M-1144.4735,122.793v0.8877h-2.46v-0.8877H-1144.4735z"/>
	<path id="XMLID_700_" d="M-1138.8456,125.1929h2.4961v0.936h-3.5039v-9.0479h1.0078V125.1929z"/>
	<path id="XMLID_702_" d="M-1134.6942,117.6807c0.1846,0,0.3447,0.0684,0.4805,0.2041c0.1357,0.1362,0.2041,0.2964,0.2041,0.48
		c0,0.1924-0.0684,0.354-0.2041,0.4863c-0.1357,0.1318-0.2959,0.1978-0.4805,0.1978c-0.1836,0-0.3438-0.0659-0.4795-0.1978
		c-0.1357-0.1323-0.2041-0.2939-0.2041-0.4863c0-0.1836,0.0684-0.3438,0.2041-0.48
		C-1135.038,117.749-1134.8778,117.6807-1134.6942,117.6807z M-1134.2137,126.1289h-0.96v-5.6401h0.96V126.1289z"/>
	<path id="XMLID_705_" d="M-1127.1219,125.8531c0,0.2241-0.0039,0.4419-0.0117,0.6538s-0.0303,0.418-0.0664,0.6182
		c-0.0352,0.1997-0.0918,0.396-0.168,0.5879s-0.1855,0.3799-0.3301,0.564c-0.2637,0.3359-0.5879,0.5859-0.9717,0.75
		s-0.7881,0.2461-1.2119,0.2461c-0.3916,0-0.7559-0.0601-1.0918-0.1802c-0.3359-0.1196-0.626-0.292-0.8701-0.5156
		c-0.2441-0.2241-0.4385-0.4966-0.582-0.8164c-0.1445-0.3198-0.2197-0.6797-0.2285-1.0801h0.9609
		c0.0078,0.5283,0.1797,0.9443,0.5156,1.248c0.3359,0.3042,0.7637,0.456,1.2842,0.456c0.3672,0,0.6699-0.064,0.9053-0.1919
		c0.2363-0.1279,0.4219-0.2998,0.5586-0.5161c0.1357-0.2158,0.2275-0.4658,0.2754-0.75c0.0488-0.2837,0.0723-0.5859,0.0723-0.9058
		v-0.6719h-0.0234c-0.2324,0.2959-0.5205,0.5259-0.8643,0.6899c-0.3438,0.1636-0.708,0.2456-1.0918,0.2456
		c-0.4082,0-0.7783-0.0796-1.1104-0.2397s-0.6162-0.376-0.8516-0.6479c-0.2363-0.272-0.416-0.5859-0.54-0.9419
		s-0.1865-0.73-0.1865-1.1221s0.0645-0.77,0.1924-1.1343c0.1279-0.3638,0.3096-0.6836,0.5459-0.96
		c0.2354-0.2759,0.5215-0.4956,0.8574-0.6597c0.3369-0.1641,0.7129-0.2461,1.1289-0.2461c0.3916,0,0.751,0.084,1.0791,0.252
		s0.6084,0.4038,0.8408,0.708h0.0234v-0.8042h0.96V125.8531z M-1129.9296,121.2207c-0.2803,0-0.5322,0.0562-0.7559,0.168
		c-0.2246,0.1123-0.416,0.2622-0.5762,0.4502s-0.2842,0.4043-0.3721,0.6479c-0.0879,0.2441-0.1318,0.498-0.1318,0.7622
		c0,0.2798,0.04,0.5479,0.1201,0.8037c0.0791,0.2563,0.1973,0.4844,0.3535,0.6841c0.1562,0.2002,0.3486,0.3599,0.5762,0.48
		s0.4941,0.1802,0.7979,0.1802c0.3125,0,0.584-0.0581,0.8164-0.1738c0.2314-0.1162,0.4277-0.272,0.5879-0.4683
		c0.1602-0.1958,0.2793-0.4219,0.3594-0.6777c0.0801-0.2563,0.1201-0.5283,0.1201-0.8164c0-0.2798-0.0439-0.5439-0.1318-0.792
		c-0.0879-0.2476-0.2119-0.4639-0.3721-0.6479c-0.1602-0.1836-0.3574-0.3301-0.5938-0.438S-1129.6337,121.2207-1129.9296,121.2207z"
		/>
	<path id="XMLID_708_" d="M-1124.2899,116.229v4.9199l0.0234,0.0239c0.2002-0.272,0.4307-0.48,0.6904-0.624
		s0.5654-0.2158,0.918-0.2158c0.3916,0,0.7119,0.0659,0.96,0.1978c0.248,0.1323,0.4443,0.3101,0.5879,0.5342
		s0.2422,0.4839,0.2939,0.7798c0.0518,0.2964,0.0781,0.6084,0.0781,0.936v3.3481h-0.96v-3.1802
		c0-0.2236-0.0098-0.4419-0.0303-0.6538c-0.0195-0.2119-0.0684-0.396-0.1436-0.5522c-0.0762-0.1558-0.1943-0.2817-0.3545-0.3779
		c-0.1602-0.0957-0.3799-0.144-0.6602-0.144c-0.3281,0-0.5859,0.0703-0.7734,0.21c-0.1885,0.1401-0.3281,0.3184-0.4199,0.5342
		c-0.0928,0.2158-0.1504,0.4561-0.1738,0.7202c-0.0244,0.2637-0.0361,0.52-0.0361,0.7681v2.6758h-0.96v-9.8999H-1124.2899z"/>
	<path id="XMLID_710_" d="M-1117.9061,126.1289h-0.96v-4.752h-0.5879v-0.8882h0.5879v-2.0278h0.96v2.0278h1.0078v0.8882h-1.0078
		V126.1289z"/>
</g>
<g id="XMLID_180_">
	<path id="XMLID_193_" fill="none" d="M-187.2,71.9516"/>
	<path id="XMLID_191_" fill="none" d="M-447.5541,88.9291"/>
	<path id="XMLID_190_" fill="none" d="M-421.5592,88.9291"/>
	<polygon id="XMLID_189_" fill="#F39C12" points="-423.1357,90.5219 -423.1357,67.0991 -472.0149,98.3196 -461.1858,115.1342 
		-443.1358,103.4587 -443.1357,220.1977 -423.1357,220.1977 	"/>
	<path id="XMLID_186_" fill="#34A853" d="M-325.5025,60.115l-11.097-23.7977l-42.7427,91.9402l-42.8724,91.9402h171.3599
		L-325.5025,60.115z M-361.2161,136.7098l24.6826-52.9268l54.405,116.672h-108.8125L-361.2161,136.7098z"/>
	<g id="XMLID_184_">
		<path id="XMLID_185_" fill="#E74C3C" d="M-153.7728,202.455c0,6.0916,0,17.7426,0,17.7426h-95.6515l68.9765-88.8767
			c0,0,0.0219-0.0283,0.0679-0.081c3.9866-4.7856,6.3847-10.941,6.3847-17.6565c0-15.245-12.3585-27.6034-27.6034-27.6034
			s-27.6034,12.3585-27.6034,27.6034c-4.5616,0-15.5944,0-20.2223,0c0-26.4134,21.4123-47.8257,47.8257-47.8257
			s47.8257,21.4123,47.8257,47.8257c0,11.7351-4.2266,22.4831-11.2405,30.8046c-9.38,12.1073-42.1708,54.4511-42.1708,54.4511
			h53.4113C-153.7728,198.8392-153.7728,200.2989-153.7728,202.455z"/>
	</g>
	<g id="XMLID_181_">
		<path id="XMLID_182_" fill="#3498DB" d="M-37.1699,156.3366c-4.505-19.0523-18.352-33.0695-44.574-35.8985
			c15.7886-18.9762,45.2593-54.4029,45.2593-54.4029h-98.3514v20h57.303c0,0-46.1499,55.5356-46.1499,55.5356
			c8.77-3.9917,26-4.3514,31.3097-4.2263c22.3865,0.5275,36.2544,15.0845,35.6434,33.2258
			c-0.6144,18.2417-17.4812,33.0482-39.0454,33.0482c-16.5248,0-30.652-8.6887-36.3523-20.963c0,0-18.2892,9.1258-18.2899,9.1262
			c8.8907,19.5425,30.2829,33.3142,55.2598,33.3142c32.9506,0,59.6622-23.9682,59.6622-53.5344
			C-35.4953,166.2334-36.0374,161.1259-37.1699,156.3366z"/>
	</g>
</g>
<g id="XMLID_212_">
	<path id="XMLID_671_" d="M-455.1913,239.6109c-0.4141-0.7021-0.8867-1.2461-1.418-1.6338
		c-0.5312-0.3867-1.2285-0.5801-2.0918-0.5801c-0.4502,0-0.8779,0.0762-1.2832,0.2295c-0.4043,0.1533-0.7646,0.3691-1.0801,0.6475
		c-0.3145,0.2793-0.5625,0.6123-0.7422,0.999c-0.1797,0.3877-0.2695,0.8154-0.2695,1.2832c0,0.4316,0.1025,0.8145,0.3105,1.1475
		c0.2061,0.333,0.4629,0.625,0.7695,0.877c0.3057,0.252,0.6475,0.4678,1.0254,0.6475c0.3779,0.1807,0.7383,0.3516,1.0801,0.5137
		l1.3496,0.5938c0.666,0.2881,1.292,0.5986,1.877,0.9316s1.1025,0.7197,1.5527,1.1611c0.4492,0.4414,0.8047,0.9541,1.0664,1.5391
		c0.2607,0.585,0.3916,1.2822,0.3916,2.0918c0,0.9004-0.167,1.7334-0.5,2.498c-0.333,0.7656-0.792,1.4268-1.377,1.9844
		c-0.585,0.5586-1.2646,0.999-2.0381,1.3232c-0.7744,0.3242-1.6025,0.4854-2.4844,0.4854c-0.8096,0-1.5654-0.126-2.2676-0.3779
		c-0.7021-0.252-1.3281-0.6074-1.877-1.0664s-1.0127-1.0127-1.3906-1.6602c-0.3779-0.6484-0.6475-1.3682-0.8096-2.1602
		l2.2139-0.6211c0.0713,0.5225,0.2246,1.0127,0.459,1.4717c0.2334,0.459,0.5264,0.8594,0.8779,1.2012
		c0.3506,0.3428,0.7598,0.6123,1.2285,0.8105c0.4678,0.1982,0.9717,0.2969,1.5117,0.2969s1.0615-0.0986,1.5654-0.2969
		s0.9492-0.4727,1.3369-0.8242c0.3867-0.3506,0.6973-0.7686,0.9316-1.2549c0.2334-0.4863,0.3506-1.0166,0.3506-1.5928
		c0-0.5947-0.1074-1.0977-0.3232-1.5127c-0.2168-0.4131-0.5-0.7734-0.8506-1.0801c-0.3516-0.3057-0.752-0.5713-1.2021-0.7959
		s-0.9092-0.4453-1.377-0.6621l-1.2422-0.54c-0.5938-0.2695-1.1602-0.5576-1.7002-0.8633s-1.0127-0.6572-1.418-1.0537
		c-0.4053-0.3955-0.7246-0.8594-0.958-1.3896c-0.2344-0.5312-0.3516-1.165-0.3516-1.9033c0-0.792,0.1533-1.5078,0.459-2.1465
		s0.7246-1.1836,1.2559-1.6338c0.5303-0.4502,1.1377-0.7969,1.8223-1.04c0.6836-0.2422,1.4043-0.3643,2.1602-0.3643
		c1.1338,0,2.1602,0.2744,3.0781,0.8232c0.918,0.5498,1.6465,1.3281,2.1865,2.3359L-455.1913,239.6109z"/>
	<path id="XMLID_673_" d="M-376.4325,255.9995h-2.2686v-18.252h-4.9141v-2.1055h12.1504v2.1055h-4.9678V255.9995z"/>
	<path id="XMLID_675_" d="M-299.4295,247.7642c0,0.3779,0,0.7656,0,1.1611c0,0.3965,0.0273,0.793,0.0811,1.1885
		c0.0547,0.3955,0.1445,0.7783,0.2705,1.1475s0.3057,0.7148,0.54,1.0391c0.4492,0.6309,1.0566,1.1123,1.8223,1.4443
		c0.7646,0.334,1.5254,0.5,2.2812,0.5c0.7383,0,1.4717-0.1572,2.2012-0.4727c0.7285-0.3145,1.3271-0.7598,1.7949-1.3369
		c0.2705-0.3232,0.4727-0.6748,0.6074-1.0527s0.2344-0.7695,0.2969-1.1738c0.0635-0.4053,0.0947-0.8145,0.0947-1.2285
		s0-0.8193,0-1.2158v-12.1221h2.2686v12.7432c0,0.5586-0.0186,1.085-0.0547,1.5801s-0.1123,0.9766-0.2295,1.4443
		s-0.2969,0.918-0.54,1.3496c-0.2432,0.4326-0.5625,0.8555-0.958,1.2695c-0.7021,0.7559-1.5352,1.332-2.498,1.7275
		c-0.9629,0.3955-1.957,0.5938-2.9834,0.5938c-0.9717,0-1.9209-0.1748-2.8486-0.5264c-0.9268-0.3506-1.7324-0.8682-2.416-1.5518
		c-0.4502-0.4326-0.8057-0.8691-1.0664-1.3096c-0.2617-0.4414-0.459-0.9053-0.5938-1.3906
		c-0.1357-0.4863-0.2256-0.9941-0.2705-1.5254s-0.0674-1.085-0.0674-1.6611v-12.7432h2.2676V247.7642z"/>
	<path id="XMLID_677_" d="M-215.6483,235.6421h3.834c0.7559,0,1.4854,0.0312,2.1875,0.0938
		c0.7021,0.0635,1.377,0.1855,2.0244,0.3652c0.6484,0.1797,1.2832,0.4316,1.9043,0.7559c0.6201,0.3242,1.2285,0.7383,1.8223,1.2422
		c1.1699,1.0078,2.0244,2.1689,2.5645,3.4824s0.8105,2.7363,0.8105,4.2656c0,1.4941-0.2705,2.8809-0.8105,4.1582
		c-0.54,1.2783-1.377,2.4209-2.5107,3.4287c-0.6123,0.54-1.2246,0.9775-1.8359,1.3096c-0.6123,0.334-1.2471,0.5947-1.9033,0.7832
		c-0.6572,0.1895-1.3418,0.3154-2.0518,0.3779c-0.7119,0.0635-1.4629,0.0947-2.2549,0.0947h-3.7803V235.6421z M-211.7332,253.8931
		c0.6123,0,1.2061-0.0264,1.7822-0.0801c0.5762-0.0547,1.1289-0.1582,1.6602-0.3105c0.5312-0.1533,1.0439-0.3691,1.5391-0.6484
		s0.9766-0.6348,1.4443-1.0664c0.8467-0.792,1.4805-1.7012,1.9043-2.7275c0.4219-1.0254,0.6338-2.1055,0.6338-3.2393
		c0-1.1699-0.2207-2.2861-0.6611-3.3477c-0.4414-1.0625-1.1025-1.9805-1.9844-2.7539c-0.9365-0.8281-1.9219-1.3643-2.957-1.6074
		c-1.0352-0.2422-2.1553-0.3643-3.3613-0.3643h-1.6465v16.1455H-211.7332z"/>
	<path id="XMLID_680_" d="M-127.5204,255.9995h-2.2676v-20.3574h2.2676V255.9995z"/>
	<path id="XMLID_682_" d="M-46.3045,235.2905c1.458,0,2.8311,0.2744,4.1182,0.8232c1.2861,0.5498,2.4111,1.3057,3.375,2.2686
		c0.9619,0.9629,1.7227,2.084,2.2812,3.3613c0.5576,1.2783,0.8369,2.6455,0.8369,4.1035s-0.2793,2.8262-0.8369,4.1045
		c-0.5586,1.2783-1.3193,2.3896-2.2812,3.334c-0.9639,0.9453-2.0889,1.6924-3.375,2.2412
		c-1.2871,0.5488-2.6602,0.8233-4.1182,0.8233s-2.8301-0.2744-4.1172-0.8233c-1.2871-0.5488-2.4121-1.2959-3.375-2.2412
		c-0.9629-0.9443-1.7236-2.0557-2.2812-3.334c-0.5586-1.2783-0.8369-2.6465-0.8369-4.1045s0.2783-2.8252,0.8369-4.1035
		c0.5576-1.2773,1.3184-2.3984,2.2812-3.3613s2.0879-1.7188,3.375-2.2686C-49.1346,235.565-47.7625,235.2905-46.3045,235.2905z
		 M-46.3045,237.397c-1.1699,0-2.2637,0.2207-3.2803,0.6611c-1.0166,0.4414-1.8994,1.0439-2.6455,1.8096
		c-0.748,0.7646-1.3369,1.6602-1.7686,2.6855c-0.4326,1.0264-0.6484,2.1152-0.6484,3.2676c0,1.1514,0.2158,2.2363,0.6484,3.2529
		c0.4316,1.0176,1.0254,1.9082,1.7812,2.6729c0.7568,0.7656,1.6426,1.373,2.6602,1.8232c1.0166,0.4502,2.1006,0.6748,3.2529,0.6748
		s2.2363-0.2246,3.2539-0.6748c1.0166-0.4502,1.9033-1.0576,2.6592-1.8232c0.7559-0.7646,1.3506-1.6553,1.7822-2.6729
		c0.4316-1.0166,0.6484-2.1016,0.6484-3.2529c0-1.1523-0.2168-2.2412-0.6484-3.2676c-0.4316-1.0254-1.0215-1.9209-1.7686-2.6855
		c-0.7471-0.7656-1.6289-1.3682-2.6455-1.8096C-44.0409,237.6177-45.1346,237.397-46.3045,237.397z"/>
</g>
<g id="XMLID_130_">
	<path id="XMLID_136_" fill="#34A853" d="M99.7165,146.3901c13.6881-24.3653,27.3765-48.7305,27.3767-48.7309
		c0.0003,0.0005,13.4862,24.0056,27.0721,48.1886l31.8232-19.1299C156.878,74.9013,128.0031,23.5036,128,23.4982
		C127.9976,23.5023,98.6445,75.7512,69.2914,128c-0.1374,0.2447-0.275,0.4893-0.4123,0.734l30.6489,17.9918
		C99.5909,146.6138,99.6536,146.502,99.7165,146.3901z"/>
	<path id="XMLID_169_" fill="#F39C12" d="M245.3723,232.4216c-1.2281-2.1859-30.4225-54.1522-59.3838-105.7037l-31.8232,19.1299
		c13.7892,24.545,27.6814,49.2732,27.6814,49.2732s-0.0291,0-0.0506,0l27.7095,16.2753L245.3723,232.4216z"/>
	<path id="XMLID_170_" fill="#EC1C24" d="M72.3397,195.121c0,0,13.563-24.1423,27.1883-48.3952L68.879,128.734
		c-29.2162,52.0051-58.2963,103.7678-58.2963,103.7678s0.0154,0,0.0397,0L72.348,195.148l-61.7256,37.3538
		c0.0043,0,0.0147,0,0.0198,0l61.7762-37.3809C72.3663,195.121,72.3397,195.121,72.3397,195.121z"/>
	<path id="XMLID_171_" fill="#3498DB" d="M245.4066,232.483l-35.901-21.0867l-27.6206-16.1914l27.6206,16.1914L181.796,195.121
		c-2.1003,0-106.115,0-109.3776,0l-61.7762,37.3809c3.9337,0,234.775,0,234.775,0S245.4087,232.4863,245.4066,232.483z"/>
	<path id="XMLID_168_" fill="#D0D2D3" d="M245.4066,232.483c-0.0061-0.011-0.0139-0.0251-0.0343-0.0614l-35.8667-21.0254
		L245.4066,232.483z"/>
</g>
<g id="XMLID_219_">
	<path id="XMLID_230_" fill="none" d="M-187.2,351.1338"/>
	<path id="XMLID_229_" fill="none" d="M-447.5542,368.1113"/>
	<path id="XMLID_228_" fill="none" d="M-421.5592,368.1113"/>
	<polygon id="XMLID_227_" fill="#F39C12" points="-423.1357,369.704 -423.1357,346.2813 -472.0149,377.5017 -461.1858,394.3163 
		-443.1358,382.6409 -443.1357,499.3798 -423.1357,499.3798 	"/>
	<path id="XMLID_224_" fill="#34A853" d="M-325.5025,339.2972l-11.097-23.7977l-42.7427,91.9402l-42.8724,91.9402h171.3599
		L-325.5025,339.2972z M-361.2161,415.892l24.6826-52.9268l54.405,116.672h-108.8125L-361.2161,415.892z"/>
	<g id="XMLID_222_">
		<path id="XMLID_223_" fill="#E74C3C" d="M-153.7728,481.6372c0,6.0916,0,17.7426,0,17.7426h-95.6515l68.9765-88.8767
			c0,0,0.0219-0.0283,0.0679-0.081c3.9866-4.7856,6.3847-10.941,6.3847-17.6565c0-15.2449-12.3585-27.6034-27.6034-27.6034
			s-27.6034,12.3585-27.6034,27.6034c-4.5616,0-15.5944,0-20.2223,0c0-26.4134,21.4123-47.8257,47.8257-47.8257
			s47.8257,21.4123,47.8257,47.8257c0,11.7351-4.2266,22.4831-11.2405,30.8046c-9.38,12.1073-42.1708,54.4511-42.1708,54.4511
			h53.4113C-153.7728,478.0214-153.7728,479.481-153.7728,481.6372z"/>
	</g>
	<g id="XMLID_220_">
		<path id="XMLID_221_" fill="#3498DB" d="M-37.1699,435.5188c-4.505-19.0523-18.352-33.0695-44.574-35.8986
			c15.7886-18.9762,45.2593-54.4029,45.2593-54.4029h-98.3514v20h57.303c0,0-46.1499,55.5356-46.1499,55.5356
			c8.77-3.9917,26-4.3514,31.3097-4.2263c22.3865,0.5275,36.2544,15.0845,35.6434,33.2258
			c-0.6144,18.2417-17.4812,33.0482-39.0454,33.0482c-16.5248,0-30.652-8.6887-36.3523-20.963c0,0-18.2892,9.1258-18.2899,9.1262
			c8.8907,19.5425,30.2829,33.3142,55.2598,33.3142c32.9506,0,59.6622-23.9681,59.6622-53.5344
			C-35.4953,445.4156-36.0374,440.3081-37.1699,435.5188z"/>
	</g>
</g>
<g id="XMLID_323_">
	<path id="XMLID_334_" fill="#5F5F5F" d="M282.0782,351.1338"/>
	<path id="XMLID_333_" fill="#5F5F5F" d="M21.724,368.1113"/>
	<path id="XMLID_332_" fill="#5F5F5F" d="M47.7189,368.1113"/>
	<polygon id="XMLID_331_" fill="#5F5F5F" points="46.1424,369.704 46.1424,346.2813 -2.7368,377.5017 8.0923,394.3163 
		26.1423,382.6409 26.1424,499.3798 46.1424,499.3798 	"/>
	<path id="XMLID_328_" fill="#5F5F5F" d="M143.7756,339.2972l-11.097-23.7977l-42.7427,91.9402l-42.8724,91.9402h171.3599
		L143.7756,339.2972z M108.062,415.892l24.6826-52.9268l54.405,116.672H78.3372L108.062,415.892z"/>
	<g id="XMLID_326_">
		<path id="XMLID_327_" fill="#5F5F5F" d="M315.5053,481.6372c0,6.0916,0,17.7426,0,17.7426h-95.6514l68.9765-88.8767
			c0,0,0.0219-0.0283,0.0679-0.081c3.9866-4.7856,6.3847-10.941,6.3847-17.6565c0-15.2449-12.3585-27.6034-27.6034-27.6034
			c-15.2449,0-27.6034,12.3585-27.6034,27.6034c-4.5616,0-15.5944,0-20.2223,0c0-26.4134,21.4123-47.8257,47.8257-47.8257
			s47.8257,21.4123,47.8257,47.8257c0,11.7351-4.2266,22.4831-11.2405,30.8046c-9.38,12.1073-42.1708,54.4511-42.1708,54.4511
			h53.4113C315.5053,478.0214,315.5053,479.481,315.5053,481.6372z"/>
	</g>
	<g id="XMLID_324_">
		<path id="XMLID_325_" fill="#5F5F5F" d="M432.1082,435.5188c-4.505-19.0523-18.352-33.0695-44.574-35.8986
			c15.7886-18.9762,45.2593-54.4029,45.2593-54.4029h-98.3514v20h57.303c0,0-46.1499,55.5356-46.1499,55.5356
			c8.77-3.9917,26-4.3514,31.3097-4.2263c22.3865,0.5275,36.2544,15.0845,35.6434,33.2258
			c-0.6144,18.2417-17.4812,33.0482-39.0454,33.0482c-16.5248,0-30.652-8.6887-36.3523-20.963c0,0-18.2892,9.1258-18.2899,9.1262
			c8.8907,19.5425,30.2829,33.3142,55.2598,33.3142c32.9506,0,59.6622-23.9681,59.6622-53.5344
			C433.7828,445.4156,433.2407,440.3081,432.1082,435.5188z"/>
	</g>
</g>
<g id="XMLID_412_">
	<path id="XMLID_423_" fill="#231F20" stroke="#231F20" stroke-miterlimit="10" d="M282.0782,578.5654"/>
	<path id="XMLID_422_" fill="#231F20" stroke="#231F20" stroke-miterlimit="10" d="M21.724,595.543"/>
	<path id="XMLID_421_" fill="#231F20" stroke="#231F20" stroke-miterlimit="10" d="M47.7189,595.543"/>
	<polygon id="XMLID_420_" fill="#231F20" points="46.1424,597.1357 46.1424,573.713 -2.7368,604.9334 8.0923,621.748 
		26.1423,610.0726 26.1424,726.8115 46.1424,726.8115 	"/>
	<path id="XMLID_417_" fill="#231F20" d="M143.7756,566.7289l-11.097-23.7977l-42.7427,91.9402l-42.8724,91.9402h171.3599
		L143.7756,566.7289z M108.062,643.3237l24.6826-52.9268l54.405,116.672H78.3372L108.062,643.3237z"/>
	<g id="XMLID_415_">
		<path id="XMLID_416_" fill="#231F20" d="M315.5053,709.0689c0,6.0916,0,17.7426,0,17.7426h-95.6514l68.9765-88.8767
			c0,0,0.0219-0.0283,0.0679-0.0809c3.9866-4.7856,6.3847-10.941,6.3847-17.6565c0-15.245-12.3585-27.6035-27.6034-27.6035
			c-15.2449,0-27.6034,12.3585-27.6034,27.6035c-4.5616,0-15.5944,0-20.2223,0c0-26.4135,21.4123-47.8257,47.8257-47.8257
			s47.8257,21.4123,47.8257,47.8257c0,11.7351-4.2266,22.483-11.2405,30.8046c-9.38,12.1073-42.1708,54.4511-42.1708,54.4511
			h53.4113C315.5053,705.4531,315.5053,706.9127,315.5053,709.0689z"/>
	</g>
	<g id="XMLID_413_">
		<path id="XMLID_414_" fill="#231F20" d="M432.1082,662.9504c-4.505-19.0522-18.352-33.0695-44.574-35.8985
			c15.7886-18.9762,45.2593-54.403,45.2593-54.403h-98.3514v20h57.303c0,0-46.1499,55.5356-46.1499,55.5356
			c8.77-3.9917,26-4.3514,31.3097-4.2263c22.3865,0.5275,36.2544,15.0845,35.6434,33.2257
			c-0.6144,18.2417-17.4812,33.0482-39.0454,33.0482c-16.5248,0-30.652-8.6887-36.3523-20.963c0,0-18.2892,9.1258-18.2899,9.1262
			c8.8907,19.5424,30.2829,33.3141,55.2598,33.3141c32.9506,0,59.6622-23.9681,59.6622-53.5344
			C433.7828,672.8473,433.2407,667.7398,432.1082,662.9504z"/>
	</g>
</g>
<g id="XMLID_361_">
	<path id="XMLID_372_" fill="#FFFFFF" d="M-187.2,578.5655"/>
	<path id="XMLID_371_" fill="#FFFFFF" d="M-447.5541,595.543"/>
	<path id="XMLID_370_" fill="#FFFFFF" d="M-421.5592,595.543"/>
	<polygon id="XMLID_369_" fill="#FFFFFF" points="-423.1357,597.1357 -423.1357,573.713 -472.0149,604.9335 -461.1858,621.748 
		-443.1358,610.0726 -443.1357,726.8115 -423.1357,726.8115 	"/>
	<path id="XMLID_366_" fill="#FFFFFF" d="M-325.5025,566.7289l-11.097-23.7977l-42.7427,91.9402l-42.8724,91.9402h171.3599
		L-325.5025,566.7289z M-361.2161,643.3237l24.6826-52.9268l54.405,116.672h-108.8125L-361.2161,643.3237z"/>
	<g id="XMLID_364_">
		<path id="XMLID_365_" fill="#FFFFFF" d="M-153.7728,709.0689c0,6.0916,0,17.7426,0,17.7426h-95.6514l68.9765-88.8767
			c0,0,0.0219-0.0282,0.0679-0.0809c3.9866-4.7856,6.3847-10.941,6.3847-17.6565c0-15.245-12.3585-27.6035-27.6034-27.6035
			c-15.245,0-27.6034,12.3585-27.6034,27.6035c-4.5616,0-15.5944,0-20.2223,0c0-26.4135,21.4123-47.8257,47.8257-47.8257
			s47.8257,21.4123,47.8257,47.8257c0,11.7351-4.2266,22.483-11.2405,30.8046c-9.38,12.1073-42.1708,54.4511-42.1708,54.4511
			h53.4113C-153.7728,705.4531-153.7728,706.9127-153.7728,709.0689z"/>
	</g>
	<g id="XMLID_362_">
		<path id="XMLID_363_" fill="#FFFFFF" d="M-37.1699,662.9504c-4.505-19.0522-18.352-33.0695-44.574-35.8985
			c15.7886-18.9762,45.2593-54.403,45.2593-54.403h-98.3514v20h57.303c0,0-46.1499,55.5356-46.1499,55.5356
			c8.77-3.9917,26-4.3514,31.3097-4.2263c22.3865,0.5275,36.2544,15.0845,35.6434,33.2257
			c-0.6144,18.2417-17.4812,33.0482-39.0454,33.0482c-16.5248,0-30.652-8.6887-36.3523-20.963c0,0-18.2892,9.1258-18.2899,9.1262
			c8.8907,19.5424,30.2829,33.3141,55.2598,33.3141c32.9506,0,59.6622-23.9681,59.6622-53.5344
			C-35.4953,672.8473-36.0374,667.7398-37.1699,662.9504z"/>
	</g>
</g>
<g id="XMLID_670_">
</g>
<g id="XMLID_826_">
</g>
<g id="XMLID_827_">
</g>
<g id="XMLID_828_">
</g>
<g id="XMLID_829_">
</g>
<g id="XMLID_830_">
</g>
</svg>
